<?xml version="1.0" encoding="iso-8859-1"?>
<!-- Generator: Adobe Illustrator 19.0.0, SVG Export Plug-In . SVG Version: 6.00 Build 0)  -->
<svg version="1.1" id="Capa_1" xmlns="http://www.w3.org/2000/svg" xmlns:xlink="http://www.w3.org/1999/xlink" x="0px" y="0px"
	 viewBox="0 0 512.001 512.001" style="enable-background:new 0 0 512.001 512.001;" xml:space="preserve">
<path style="fill:#B7E5FF;" d="M61.793,256l2.648,2.975c48.87,54.307,118.502,85.31,191.559,85.301l0,0
	c73.057,0.009,142.689-30.994,191.559-85.301l2.648-2.975l-2.648-2.975c-48.87-54.307-118.502-85.31-191.559-85.301l0,0
	c-73.057-0.009-142.689,30.994-191.559,85.301L61.793,256z"/>
<circle style="fill:#4DB5FF;" cx="256" cy="256" r="88.276"/>
<g>
	<path style="fill:#FFD4B0;" d="M512,0v180.966c0,12.191-9.878,22.069-22.069,22.069l0,0c-12.191,0-22.069-9.878-22.069-22.069
		v-39.724H317.793c-9.754,0-17.655-7.901-17.655-17.655l0,0c0-9.754,7.901-17.655,17.655-17.655h79.448V0H512z"/>
	<path style="fill:#FFD4B0;" d="M0,512V331.034c0-12.191,9.878-22.069,22.069-22.069l0,0c12.191,0,22.069,9.878,22.069,22.069
		v39.724h150.069c9.754,0,17.655,7.901,17.655,17.655l0,0c0,9.754-7.901,17.655-17.655,17.655h-79.448V512H0z"/>
</g>
<g>
	<path style="fill:#EDC4A2;" d="M51.509,381.511C47.263,422.956,29.114,461.745,0,491.546V512h114.759v-98.595
		C90.836,409.732,68.688,398.566,51.509,381.511z"/>
	<path style="fill:#EDC4A2;" d="M397.242,105.931h-20.047c14.318,14.539,31.038,26.483,49.434,35.31h16.428
		C433.753,91.957,463.696,43.741,512,30.234V0H397.242V105.931z"/>
</g>
<circle style="fill:#235087;" cx="256" cy="256" r="35.31"/>
<path style="fill:#FFD4B0;" d="M388.414,70.621h35.31c9.754,0,17.655,7.901,17.655,17.655l0,0c0,9.754-7.901,17.655-17.655,17.655
	h-35.31c-9.754,0-17.655-7.901-17.655-17.655l0,0C370.759,78.521,378.66,70.621,388.414,70.621z"/>
<path style="fill:#EDC4A2;" d="M383.568,105.172c1.571,0.477,3.204,0.733,4.846,0.759h35.31c9.657,0.097,17.567-7.662,17.655-17.32
	c0.018-2.145-0.353-4.281-1.103-6.285C423.804,94.967,404.198,102.868,383.568,105.172z"/>
<path style="fill:#FFD4B0;" d="M388.414,0h35.31c9.754,0,17.655,7.901,17.655,17.655l0,0c0,9.754-7.901,17.655-17.655,17.655h-35.31
	c-9.754,0-17.655-7.901-17.655-17.655l0,0C370.759,7.901,378.66,0,388.414,0z"/>
<path style="fill:#EDC4A2;" d="M383.568,34.551c1.571,0.477,3.204,0.733,4.846,0.759h35.31c9.657,0.097,17.567-7.662,17.655-17.32
	c0.018-2.145-0.353-4.281-1.103-6.285C423.804,24.346,404.198,32.247,383.568,34.551z"/>
<path style="fill:#FFD4B0;" d="M388.414,35.31h35.31c9.754,0,17.655,7.901,17.655,17.655l0,0c0,9.754-7.901,17.655-17.655,17.655
	h-35.31c-9.754,0-17.655-7.901-17.655-17.655l0,0C370.759,43.211,378.66,35.31,388.414,35.31z"/>
<path style="fill:#EDC4A2;" d="M383.568,69.862c1.571,0.477,3.204,0.733,4.846,0.759h35.31c9.657,0.097,17.567-7.662,17.655-17.32
	c0.018-2.145-0.353-4.281-1.103-6.285C423.804,59.657,404.198,67.558,383.568,69.862z"/>
<path style="fill:#FFD4B0;" d="M88.276,406.069h35.31c9.754,0,17.655,7.901,17.655,17.655l0,0c0,9.754-7.901,17.655-17.655,17.655
	h-35.31c-9.754,0-17.655-7.901-17.655-17.655l0,0C70.621,413.97,78.522,406.069,88.276,406.069z"/>
<path style="fill:#EDC4A2;" d="M83.43,440.62c1.571,0.477,3.204,0.733,4.846,0.759h35.31c9.657,0.097,17.567-7.662,17.655-17.32
	c0.018-2.145-0.353-4.281-1.103-6.285C123.666,430.415,104.06,438.316,83.43,440.62z"/>
<path style="fill:#FFD4B0;" d="M88.276,476.69h35.31c9.754,0,17.655,7.901,17.655,17.655l0,0c0,9.754-7.901,17.655-17.655,17.655
	h-35.31c-9.754,0-17.655-7.901-17.655-17.655l0,0C70.621,484.59,78.522,476.69,88.276,476.69z"/>
<path style="fill:#EDC4A2;" d="M83.43,511.241c1.571,0.477,3.204,0.733,4.846,0.759h35.31c9.657,0.097,17.567-7.662,17.655-17.32
	c0.018-2.145-0.353-4.281-1.103-6.285C123.666,501.036,104.06,508.937,83.43,511.241z"/>
<path style="fill:#FFD4B0;" d="M88.276,441.379h35.31c9.754,0,17.655,7.901,17.655,17.655l0,0c0,9.754-7.901,17.655-17.655,17.655
	h-35.31c-9.754,0-17.655-7.901-17.655-17.655l0,0C70.621,449.28,78.522,441.379,88.276,441.379z"/>
<g>
	<path style="fill:#EDC4A2;" d="M83.43,475.93c1.571,0.477,3.204,0.733,4.846,0.759h35.31c9.657,0.097,17.567-7.662,17.655-17.32
		c0.018-2.145-0.353-4.281-1.103-6.285C123.666,465.726,104.06,473.626,83.43,475.93z"/>
	<path style="fill:#EDC4A2;" d="M154.051,405.31c1.571,0.477,3.204,0.733,4.846,0.759h35.31c9.657,0.097,17.567-7.662,17.655-17.32
		c0.018-2.145-0.353-4.281-1.103-6.285C194.287,395.105,174.681,403.006,154.051,405.31z"/>
	<path style="fill:#EDC4A2;" d="M478.164,199.574c10.231,6.541,23.826,3.549,30.376-6.682c2.278-3.558,3.478-7.706,3.46-11.926
		v-23.932C504.603,173.912,492.942,188.575,478.164,199.574z"/>
</g>
<g>
	<path style="fill:#96D0EA;" d="M192.742,317.493c-3.911,0.168-7.83,0.3-11.776,0.3c-15.598-0.018-31.17-1.386-46.53-4.087
		c37.385,20.047,79.148,30.543,121.565,30.57C232.157,344.294,209.329,334.627,192.742,317.493z"/>
	<path style="fill:#96D0EA;" d="M396.756,209.585c-15.051,20.118-32.83,38.038-52.824,53.248
		c-3.54,45.948-41.852,81.426-87.932,81.443c73.057,0.009,142.689-30.994,191.559-85.301l2.648-2.975l-2.648-2.975
		C432.579,236.403,415.506,221.802,396.756,209.585z"/>
</g>
<path style="fill:#4D97FF;" d="M343.932,262.833c-43.608,33.271-96.388,52.348-151.19,54.66
	c33.898,34.948,89.715,35.805,124.663,1.907C332.853,304.41,342.29,284.292,343.932,262.833z"/>
<g>
</g>
<g>
</g>
<g>
</g>
<g>
</g>
<g>
</g>
<g>
</g>
<g>
</g>
<g>
</g>
<g>
</g>
<g>
</g>
<g>
</g>
<g>
</g>
<g>
</g>
<g>
</g>
<g>
</g>
</svg>
