<?xml version="1.0" encoding="iso-8859-1"?>
<!-- Generator: Adobe Illustrator 19.0.0, SVG Export Plug-In . SVG Version: 6.00 Build 0)  -->
<svg version="1.1" id="Capa_1" xmlns="http://www.w3.org/2000/svg" xmlns:xlink="http://www.w3.org/1999/xlink" x="0px" y="0px"
	 viewBox="0 0 512 512" style="enable-background:new 0 0 512 512;" xml:space="preserve">
<path style="fill:#4DB5FF;" d="M0,344.276v-26.483c0-24.373,19.765-44.138,44.138-44.138l0,0c24.373,0,44.138,19.765,44.138,44.138
	v26.483"/>
<circle style="fill:#FFD4B0;" cx="44.138" cy="229.517" r="26.483"/>
<rect x="70.621" style="fill:#FFA511;" width="370.759" height="158.897"/>
<path style="fill:#EF2648;" d="M344.276,44.138c-29.255,0-52.966,15.81-52.966,35.31s23.711,35.31,52.966,35.31
	c10.099,0.079,20.1-1.933,29.378-5.932l-29.378-29.378V44.138z"/>
<g>
	<path style="fill:#FFDC13;" d="M397.241,79.448c0-19.5-23.711-35.31-52.966-35.31v35.31l29.378,29.378
		C387.866,102.488,397.241,91.701,397.241,79.448z"/>
	<path style="fill:#FFDC13;" d="M247.172,123.586h-70.621c-4.873,0-8.828-3.955-8.828-8.828s3.955-8.828,8.828-8.828h70.621
		c4.873,0,8.828,3.955,8.828,8.828S252.045,123.586,247.172,123.586z"/>
	<path style="fill:#FFDC13;" d="M123.586,52.966h-17.655c-4.873,0-8.828-3.955-8.828-8.828s3.955-8.828,8.828-8.828h17.655
		c4.873,0,8.828,3.955,8.828,8.828S128.459,52.966,123.586,52.966z"/>
	<path style="fill:#FFDC13;" d="M247.172,52.966h-97.103c-4.873,0-8.828-3.955-8.828-8.828s3.955-8.828,8.828-8.828h97.103
		c4.873,0,8.828,3.955,8.828,8.828S252.045,52.966,247.172,52.966z"/>
	<path style="fill:#FFDC13;" d="M203.034,88.276h-97.103c-4.873,0-8.828-3.955-8.828-8.828c0-4.873,3.955-8.828,8.828-8.828h97.103
		c4.873,0,8.828,3.955,8.828,8.828C211.862,84.321,207.907,88.276,203.034,88.276z"/>
	<path style="fill:#FFDC13;" d="M247.172,88.276h-17.655c-4.873,0-8.828-3.955-8.828-8.828c0-4.873,3.955-8.828,8.828-8.828h17.655
		c4.873,0,8.828,3.955,8.828,8.828C256,84.321,252.045,88.276,247.172,88.276z"/>
	<path style="fill:#FFDC13;" d="M150.069,123.586h-44.138c-4.873,0-8.828-3.955-8.828-8.828s3.955-8.828,8.828-8.828h44.138
		c4.873,0,8.828,3.955,8.828,8.828S154.942,123.586,150.069,123.586z"/>
</g>
<path style="fill:#F08015;" d="M361.304,46.036c20.93,4.732,35.937,17.885,35.937,33.412c0,12.253-9.375,23.04-23.587,29.378
	c-9.278,3.999-19.279,6.012-29.378,5.932c-26.156,0-47.837-12.65-52.136-29.272c-16.093,7.645-32.556,14.468-49.337,20.445h4.37
	c4.873,0,8.828,3.955,8.828,8.828s-3.955,8.828-8.828,8.828h-65.43c-36.476,8.245-73.728,12.623-111.122,13.074v22.237h370.759V0
	h-21.319C401.576,16.693,381.943,32.079,361.304,46.036z"/>
<path style="fill:#B20D24;" d="M344.276,56.956c-16.834,10.47-34.242,19.994-52.136,28.531c4.299,16.622,25.98,29.272,52.136,29.272
	c10.099,0.079,20.1-1.933,29.378-5.932l-29.378-29.378V56.956z"/>
<g>
	<path style="fill:#E5AF17;" d="M344.276,79.448l29.378,29.378c14.212-6.338,23.587-17.126,23.587-29.378
		c0-15.528-15.007-28.681-35.937-33.412c-5.579,3.769-11.299,7.353-17.028,10.92V79.448z"/>
	<path style="fill:#E5AF17;" d="M247.172,123.586c4.873,0,8.828-3.955,8.828-8.828s-3.955-8.828-8.828-8.828h-4.414
		c-19.977,7.106-40.369,13.003-61.06,17.655H247.172z"/>
</g>
<path style="fill:#EDC4A2;" d="M57.856,206.972c2.56,4.122,3.919,8.872,3.937,13.718c0,14.627-11.855,26.483-26.483,26.483
	c-4.846-0.018-9.596-1.377-13.718-3.937c7.539,12.482,23.782,16.49,36.264,8.951s16.49-23.782,8.951-36.264
	C64.591,212.259,61.519,209.187,57.856,206.972z"/>
<circle style="fill:#FFD4B0;" cx="185.379" cy="229.517" r="26.483"/>
<path style="fill:#EDC4A2;" d="M199.097,206.972c2.56,4.122,3.919,8.872,3.937,13.718c0,14.627-11.855,26.483-26.483,26.483
	c-4.846-0.018-9.596-1.377-13.718-3.937c7.539,12.482,23.782,16.49,36.264,8.951c12.482-7.539,16.49-23.782,8.951-36.264
	C205.833,212.259,202.761,209.187,199.097,206.972z"/>
<circle style="fill:#FFD4B0;" cx="326.621" cy="229.517" r="26.483"/>
<path style="fill:#EDC4A2;" d="M340.339,206.972c2.56,4.122,3.919,8.872,3.937,13.718c0,14.627-11.855,26.483-26.483,26.483
	c-4.846-0.018-9.596-1.377-13.718-3.937c7.539,12.482,23.782,16.49,36.264,8.951c12.482-7.539,16.49-23.782,8.951-36.264
	C347.074,212.259,344.002,209.187,340.339,206.972z"/>
<circle style="fill:#FFD4B0;" cx="467.862" cy="229.517" r="26.483"/>
<path style="fill:#EDC4A2;" d="M481.58,206.972c2.56,4.122,3.919,8.872,3.937,13.718c0,14.627-11.855,26.483-26.483,26.483
	c-4.846-0.018-9.596-1.377-13.718-3.937c7.539,12.482,23.782,16.49,36.264,8.951c12.482-7.539,16.49-23.782,8.951-36.264
	C488.316,212.259,485.244,209.187,481.58,206.972z"/>
<circle style="fill:#FFD4B0;" cx="44.138" cy="397.241" r="26.483"/>
<path style="fill:#EDC4A2;" d="M57.856,374.696c2.56,4.122,3.919,8.872,3.937,13.718c0,14.627-11.855,26.483-26.483,26.483
	c-4.846-0.018-9.596-1.377-13.718-3.937c7.539,12.482,23.782,16.49,36.264,8.951s16.49-23.781,8.951-36.264
	C64.591,379.983,61.519,376.911,57.856,374.696z"/>
<circle style="fill:#FFD4B0;" cx="185.379" cy="397.241" r="26.483"/>
<path style="fill:#EDC4A2;" d="M199.097,374.696c2.56,4.122,3.919,8.872,3.937,13.718c0,14.627-11.855,26.483-26.483,26.483
	c-4.846-0.018-9.596-1.377-13.718-3.937c7.539,12.482,23.782,16.49,36.264,8.951c12.482-7.539,16.49-23.781,8.951-36.264
	C205.833,379.983,202.761,376.911,199.097,374.696z"/>
<circle style="fill:#FFD4B0;" cx="326.621" cy="397.241" r="26.483"/>
<path style="fill:#EDC4A2;" d="M340.339,374.696c2.56,4.122,3.919,8.872,3.937,13.718c0,14.627-11.855,26.483-26.483,26.483
	c-4.846-0.018-9.596-1.377-13.718-3.937c7.539,12.482,23.782,16.49,36.264,8.951c12.482-7.539,16.49-23.781,8.951-36.264
	C347.074,379.983,344.002,376.911,340.339,374.696z"/>
<circle style="fill:#FFD4B0;" cx="467.862" cy="397.241" r="26.483"/>
<path style="fill:#EDC4A2;" d="M481.58,374.696c2.56,4.122,3.919,8.872,3.937,13.718c0,14.627-11.855,26.483-26.483,26.483
	c-4.846-0.018-9.596-1.377-13.718-3.937c7.539,12.482,23.782,16.49,36.264,8.951c12.482-7.539,16.49-23.781,8.951-36.264
	C488.316,379.983,485.244,376.911,481.58,374.696z"/>
<path style="fill:#4D97FF;" d="M8.828,335.448c-2.984,0-5.914-0.185-8.828-0.441v9.269h88.276v-26.483
	c-0.018-6.321-1.404-12.553-4.07-18.282C65.792,322.26,38.091,335.466,8.828,335.448z"/>
<path style="fill:#4DB5FF;" d="M141.241,344.276v-26.483c0-24.373,19.765-44.138,44.138-44.138l0,0
	c24.373,0,44.138,19.765,44.138,44.138v26.483"/>
<path style="fill:#4D97FF;" d="M150.069,335.448c-2.984,0-5.914-0.185-8.828-0.441v9.269h88.276v-26.483
	c-0.018-6.321-1.404-12.553-4.07-18.282C207.033,322.26,179.332,335.466,150.069,335.448z"/>
<path style="fill:#4DB5FF;" d="M282.483,344.276v-26.483c0-24.373,19.765-44.138,44.138-44.138l0,0
	c24.373,0,44.138,19.765,44.138,44.138v26.483"/>
<path style="fill:#4D97FF;" d="M291.31,335.448c-2.984,0-5.914-0.185-8.828-0.441v9.269h88.276v-26.483
	c-0.018-6.321-1.404-12.553-4.069-18.282C348.275,322.26,320.574,335.466,291.31,335.448z"/>
<path style="fill:#4DB5FF;" d="M423.724,344.276v-26.483c0-24.373,19.765-44.138,44.138-44.138l0,0
	c24.373,0,44.138,19.765,44.138,44.138v26.483"/>
<path style="fill:#4D97FF;" d="M432.552,335.448c-2.984,0-5.914-0.185-8.828-0.441v9.269H512v-26.483
	c-0.018-6.321-1.404-12.553-4.07-18.282C489.516,322.26,461.815,335.466,432.552,335.448z"/>
<path style="fill:#B7E5FF;" d="M0,512v-26.483c0-24.373,19.765-44.138,44.138-44.138l0,0c24.373,0,44.138,19.765,44.138,44.138V512"
	/>
<path style="fill:#96D0EA;" d="M8.828,503.172c-2.984,0-5.914-0.185-8.828-0.441V512h88.276v-26.483
	c-0.018-6.321-1.404-12.553-4.07-18.282C65.792,489.984,38.091,503.19,8.828,503.172z"/>
<path style="fill:#B7E5FF;" d="M141.241,512v-26.483c0-24.373,19.765-44.138,44.138-44.138l0,0
	c24.373,0,44.138,19.765,44.138,44.138V512"/>
<path style="fill:#96D0EA;" d="M150.069,503.172c-2.984,0-5.914-0.185-8.828-0.441V512h88.276v-26.483
	c-0.018-6.321-1.404-12.553-4.07-18.282C207.033,489.984,179.332,503.19,150.069,503.172z"/>
<path style="fill:#B7E5FF;" d="M282.483,512v-26.483c0-24.373,19.765-44.138,44.138-44.138l0,0
	c24.373,0,44.138,19.765,44.138,44.138V512"/>
<path style="fill:#96D0EA;" d="M291.31,503.172c-2.984,0-5.914-0.185-8.828-0.441V512h88.276v-26.483
	c-0.018-6.321-1.404-12.553-4.069-18.282C348.275,489.984,320.574,503.19,291.31,503.172z"/>
<path style="fill:#B7E5FF;" d="M423.724,512v-26.483c0-24.373,19.765-44.138,44.138-44.138l0,0
	c24.373,0,44.138,19.765,44.138,44.138V512"/>
<path style="fill:#96D0EA;" d="M432.552,503.172c-2.984,0-5.914-0.185-8.828-0.441V512H512v-26.483
	c-0.018-6.321-1.404-12.553-4.07-18.282C489.516,489.984,461.815,503.19,432.552,503.172z"/>
<g>
</g>
<g>
</g>
<g>
</g>
<g>
</g>
<g>
</g>
<g>
</g>
<g>
</g>
<g>
</g>
<g>
</g>
<g>
</g>
<g>
</g>
<g>
</g>
<g>
</g>
<g>
</g>
<g>
</g>
</svg>
