<?xml version="1.0" encoding="iso-8859-1"?>
<!-- Generator: Adobe Illustrator 19.0.0, SVG Export Plug-In . SVG Version: 6.00 Build 0)  -->
<svg version="1.1" id="Capa_1" xmlns="http://www.w3.org/2000/svg" xmlns:xlink="http://www.w3.org/1999/xlink" x="0px" y="0px"
	 viewBox="0 0 512 512" style="enable-background:new 0 0 512 512;" xml:space="preserve">
<circle style="fill:#FFD4B0;" cx="79.448" cy="141.241" r="44.138"/>
<polygon style="fill:#FFA511;" points="61.793,220.69 0,512 158.897,512 97.536,220.69 "/>
<path style="fill:#F08015;" d="M17.117,431.307L0,512h158.897l-34.366-163.143C96.75,385.457,59.657,413.934,17.117,431.307z"/>
<g>
	<polygon style="fill:#FFA511;" points="414.897,220.69 353.103,512 512,512 450.639,220.69 	"/>
	<polygon style="fill:#FFA511;" points="238.345,512 167.724,141.241 344.276,141.241 273.655,512 	"/>
</g>
<circle style="fill:#FFD4B0;" cx="256" cy="52.966" r="52.966"/>
<polygon style="fill:#EF2648;" points="282.483,300.138 264.828,176.552 282.483,141.241 229.517,141.241 247.172,176.552 
	229.517,300.138 256,344.276 "/>
<g>
	<rect x="70.621" y="273.655" style="fill:#FFDC13;" width="17.655" height="17.655"/>
	<rect x="70.621" y="308.966" style="fill:#FFDC13;" width="17.655" height="17.655"/>
	<rect x="423.724" y="273.655" style="fill:#FFDC13;" width="17.655" height="17.655"/>
	<rect x="423.724" y="308.966" style="fill:#FFDC13;" width="17.655" height="17.655"/>
</g>
<path style="fill:#EDC4A2;" d="M288.75,11.388c18.105,22.943,14.186,56.223-8.757,74.328c-19.227,15.175-46.345,15.175-65.571,0
	c17.964,23.084,51.244,27.242,74.328,9.278c23.084-17.964,27.242-51.244,9.278-74.328C295.327,17.196,292.211,14.08,288.75,11.388z"
	/>
<g>
	<path style="fill:#F08015;" d="M218.492,407.755L238.345,512h35.31l35.672-187.268C287.126,360.121,255.735,388.82,218.492,407.755
		z"/>
	<path style="fill:#F08015;" d="M370.22,431.307L353.103,512H512l-34.366-163.143C449.854,385.457,412.76,413.934,370.22,431.307z"
		/>
</g>
<path style="fill:#EDC4A2;" d="M105.825,106.037c14.671,19.341,10.884,46.91-8.448,61.581c-15.704,11.917-37.429,11.917-53.133,0
	c14.504,19.509,42.072,23.57,61.581,9.075c19.509-14.495,23.57-42.072,9.075-61.581C112.331,111.66,109.277,108.597,105.825,106.037
	z"/>
<circle style="fill:#FFD4B0;" cx="432.552" cy="141.241" r="44.138"/>
<path style="fill:#EDC4A2;" d="M458.929,106.037c14.671,19.341,10.884,46.91-8.448,61.581c-15.704,11.917-37.429,11.917-53.133,0
	c14.504,19.509,42.072,23.57,61.581,9.075c19.509-14.504,23.57-42.072,9.075-61.581C465.434,111.66,462.38,108.597,458.929,106.037z
	"/>
<g>
</g>
<g>
</g>
<g>
</g>
<g>
</g>
<g>
</g>
<g>
</g>
<g>
</g>
<g>
</g>
<g>
</g>
<g>
</g>
<g>
</g>
<g>
</g>
<g>
</g>
<g>
</g>
<g>
</g>
</svg>
