<?xml version="1.0" encoding="iso-8859-1"?>
<!-- Generator: Adobe Illustrator 19.0.0, SVG Export Plug-In . SVG Version: 6.00 Build 0)  -->
<svg version="1.1" id="Capa_1" xmlns="http://www.w3.org/2000/svg" xmlns:xlink="http://www.w3.org/1999/xlink" x="0px" y="0px"
	 viewBox="0 0 512 512" style="enable-background:new 0 0 512 512;" xml:space="preserve">
<polygon style="fill:#FFDC13;" points="512,441.379 512,291.31 384,220.69 256,291.31 256,441.379 384,512 "/>
<path style="fill:#235087;" d="M414.897,326.621h-61.793c-4.873,0-8.828-3.955-8.828-8.828v-17.655
	c0-14.627,11.855-26.483,26.483-26.483h26.483c14.627,0,26.483,11.855,26.483,26.483v17.655
	C423.724,322.666,419.769,326.621,414.897,326.621z M361.931,308.966h44.138v-8.828c0-4.873-3.955-8.828-8.828-8.828h-26.483
	c-4.873,0-8.828,3.955-8.828,8.828V308.966z"/>
<polygon style="fill:#4DB5FF;" points="256,441.379 256,291.31 128,220.69 0,291.31 0,441.379 128,512 "/>
<polygon style="fill:#B7E5FF;" points="384,220.69 384,70.621 256,0 128,70.621 128,220.69 256,291.31 "/>
<polygon style="fill:#F08015;" points="203.034,423.724 141.241,423.724 158.897,388.414 185.379,388.414 "/>
<path style="fill:#EF2648;" d="M264.828,88.276l14.91-24.346c1.183-4.732-1.695-9.525-6.426-10.699
	c-0.697-0.177-1.421-0.265-2.136-0.265h-30.349c-4.873,0-8.828,3.955-8.828,8.828c0,0.715,0.088,1.439,0.265,2.136l14.91,24.346
	L229.517,220.69L256,247.172l26.483-26.483L264.828,88.276z"/>
<path style="fill:#B20D24;" d="M231.618,204.932l-2.101,15.757L256,247.172l26.483-26.483l-6.347-47.625
	C264.342,187.401,248.991,198.382,231.618,204.932z"/>
<rect x="123.586" y="317.793" style="fill:#FFDC13;" width="97.103" height="70.621"/>
<path style="fill:#E5AF17;" d="M209.823,317.793c-8.845,39.477-46.054,65.907-86.237,61.272v9.348h97.103v-70.621H209.823z"/>
<rect x="35.31" y="335.448" style="fill:#FFA511;" width="52.966" height="88.276"/>
<path style="fill:#F08015;" d="M35.31,412.857v10.867h52.966v-51.986C77.55,392.589,58.165,407.64,35.31,412.857z"/>
<rect x="52.966" y="379.586" style="fill:#FFDC13;" width="17.655" height="17.655"/>
<rect x="300.138" y="308.966" style="fill:#4DB5FF;" width="167.724" height="114.759"/>
<g>
	<rect x="361.931" y="353.103" style="fill:#235087;" width="44.138" height="35.31"/>
	<rect x="300.138" y="344.276" style="fill:#235087;" width="167.724" height="17.655"/>
</g>
<g>
	<path style="fill:#3596D8;" d="M406.069,368.825v19.588h-44.138v-0.353c-20.03,6.1-40.854,9.19-61.793,9.181v26.483h167.724
		v-61.793h-50.626C413.59,364.35,409.865,366.636,406.069,368.825z"/>
	<path style="fill:#3596D8;" d="M440.196,344.276h27.666v-29.528C459.599,325.447,450.33,335.334,440.196,344.276z"/>
</g>
<g>
	<path style="fill:#163768;" d="M361.931,388.414h44.138v-19.588c-13.93,8.077-28.734,14.53-44.138,19.235V388.414z"/>
	<path style="fill:#163768;" d="M417.236,361.931h50.626v-17.655h-27.666C432.949,350.676,425.278,356.573,417.236,361.931z"/>
</g>
<g>
</g>
<g>
</g>
<g>
</g>
<g>
</g>
<g>
</g>
<g>
</g>
<g>
</g>
<g>
</g>
<g>
</g>
<g>
</g>
<g>
</g>
<g>
</g>
<g>
</g>
<g>
</g>
<g>
</g>
</svg>
