<?xml version="1.0" encoding="iso-8859-1"?>
<!-- Generator: Adobe Illustrator 19.0.0, SVG Export Plug-In . SVG Version: 6.00 Build 0)  -->
<svg version="1.1" id="Capa_1" xmlns="http://www.w3.org/2000/svg" xmlns:xlink="http://www.w3.org/1999/xlink" x="0px" y="0px"
	 viewBox="0 0 512 512" style="enable-background:new 0 0 512 512;" xml:space="preserve">
<rect style="fill:#B7E5FF;" width="512" height="512"/>
<g>
	<path style="fill:#235087;" d="M176.552,432.552h-26.483c-34.11-0.035-61.758-27.683-61.793-61.793V176.552
		c0-4.873,3.955-8.828,8.828-8.828s8.828,3.955,8.828,8.828v194.207c0.026,24.364,19.774,44.111,44.138,44.138h26.483
		c4.873,0,8.828,3.955,8.828,8.828C185.379,428.597,181.425,432.552,176.552,432.552z"/>
	<path style="fill:#235087;" d="M141.241,229.517c-2.339,0-4.59-0.927-6.241-2.586l-37.897-37.897l-37.897,37.897
		c-3.505,3.39-9.092,3.293-12.482-0.221c-3.302-3.425-3.302-8.845,0-12.262l44.138-44.138c3.452-3.443,9.031-3.443,12.482,0
		l44.138,44.138c3.443,3.452,3.443,9.039,0,12.482C145.823,228.59,143.581,229.517,141.241,229.517z"/>
	<path style="fill:#235087;" d="M361.931,432.552h-26.483c-4.873,0-8.828-3.955-8.828-8.828c0-4.873,3.955-8.828,8.828-8.828h26.483
		c24.364-0.026,44.111-19.774,44.138-44.138V176.552c0-4.873,3.955-8.828,8.828-8.828s8.828,3.955,8.828,8.828v194.207
		C423.689,404.868,396.041,432.516,361.931,432.552z"/>
	<path style="fill:#235087;" d="M459.034,229.517c-2.339,0-4.59-0.927-6.241-2.586l-37.897-37.897L377,226.931
		c-3.505,3.39-9.092,3.293-12.482-0.221c-3.302-3.425-3.302-8.845,0-12.262l44.138-44.138c3.443-3.443,9.039-3.443,12.482,0
		l44.138,44.138c3.443,3.452,3.443,9.039,0,12.482C463.616,228.59,461.374,229.517,459.034,229.517z"/>
</g>
<circle style="fill:#4DB5FF;" cx="97.103" cy="97.103" r="44.138"/>
<path style="fill:#3596D8;" d="M123.48,61.899c14.671,19.341,10.884,46.91-8.448,61.581c-15.704,11.917-37.429,11.917-53.133,0
	c14.504,19.509,42.072,23.57,61.581,9.075s23.57-42.072,9.075-61.581C129.986,67.522,126.932,64.459,123.48,61.899z"/>
<circle style="fill:#4DB5FF;" cx="414.897" cy="97.103" r="44.138"/>
<path style="fill:#3596D8;" d="M441.273,61.899c14.671,19.341,10.884,46.91-8.448,61.581c-15.704,11.917-37.429,11.917-53.133,0
	c14.504,19.509,42.072,23.57,61.581,9.075c19.509-14.504,23.57-42.072,9.075-61.581C447.779,67.522,444.725,64.459,441.273,61.899z"
	/>
<circle style="fill:#4DB5FF;" cx="256" cy="423.724" r="44.138"/>
<path style="fill:#3596D8;" d="M282.377,388.52c14.671,19.341,10.884,46.91-8.448,61.581c-15.704,11.917-37.429,11.917-53.133,0
	c14.504,19.509,42.072,23.57,61.581,9.075c19.509-14.504,23.57-42.072,9.075-61.581C288.883,394.143,285.828,391.08,282.377,388.52z
	"/>
<rect x="220.69" y="247.172" style="fill:#EF2648;" width="70.621" height="70.621"/>
<path style="fill:#B20D24;" d="M220.69,308.966v8.828h70.621v-51.986C277.725,292.299,250.456,308.957,220.69,308.966z"/>
<rect x="220.69" y="141.241" style="fill:#EF2648;" width="70.621" height="70.621"/>
<path style="fill:#B20D24;" d="M220.69,203.034v8.828h70.621v-51.986C277.725,186.368,250.456,203.026,220.69,203.034z"/>
<rect x="220.69" y="35.31" style="fill:#EF2648;" width="70.621" height="70.621"/>
<path style="fill:#B20D24;" d="M220.69,97.103v8.828h70.621V53.945C277.725,80.437,250.456,97.095,220.69,97.103z"/>
<g>
</g>
<g>
</g>
<g>
</g>
<g>
</g>
<g>
</g>
<g>
</g>
<g>
</g>
<g>
</g>
<g>
</g>
<g>
</g>
<g>
</g>
<g>
</g>
<g>
</g>
<g>
</g>
<g>
</g>
</svg>
