<?xml version="1.0" encoding="iso-8859-1"?>
<!-- Generator: Adobe Illustrator 19.0.0, SVG Export Plug-In . SVG Version: 6.00 Build 0)  -->
<svg version="1.1" id="Capa_1" xmlns="http://www.w3.org/2000/svg" xmlns:xlink="http://www.w3.org/1999/xlink" x="0px" y="0px"
	 viewBox="0 0 512 512" style="enable-background:new 0 0 512 512;" xml:space="preserve">
<circle style="fill:#FFD4B0;" cx="189.793" cy="52.966" r="52.966"/>
<path style="fill:#FFA511;" d="M304.552,0h123.586c9.754,0,17.655,7.901,17.655,17.655v52.966c0,9.754-7.901,17.655-17.655,17.655
	h-70.621l-35.31,35.31v-35.31h-17.655c-9.754,0-17.655-7.901-17.655-17.655V17.655C286.897,7.901,294.797,0,304.552,0z"/>
<rect x="392.828" y="35.31" style="fill:#FFFFFF;" width="17.655" height="17.655"/>
<rect x="66.207" y="273.655" style="fill:#B7E5FF;" width="247.172" height="105.931"/>
<rect x="83.862" y="379.586" style="fill:#4DB5FF;" width="211.862" height="132.414"/>
<path style="fill:#FFDC13;" d="M101.517,273.655v-97.103c0-19.5,15.81-35.31,35.31-35.31h105.931c19.5,0,35.31,15.81,35.31,35.31
	v97.103H101.517z"/>
<path style="fill:#E5AF17;" d="M264.907,149.257c-37.27,56.267-96.644,94.093-163.39,104.095v20.303h176.552v-97.103
	C278.042,165.932,273.196,155.895,264.907,149.257z"/>
<rect x="172.138" y="211.862" style="fill:#EF2648;" width="35.31" height="61.793"/>
<g>
	<path style="fill:#235087;" d="M172.138,211.862h35.31v-17.655c0-9.754-7.901-17.655-17.655-17.655l0,0
		c-9.754,0-17.655,7.901-17.655,17.655V211.862z"/>
	<path style="fill:#235087;" d="M83.862,229.517h35.31v-17.655c0-9.754-7.901-17.655-17.655-17.655l0,0
		c-9.754,0-17.655,7.901-17.655,17.655V229.517z"/>
</g>
<rect x="260.414" y="229.517" style="fill:#EF2648;" width="35.31" height="44.138"/>
<path style="fill:#235087;" d="M260.414,229.517h35.31v-17.655c0-9.754-7.901-17.655-17.655-17.655l0,0
	c-9.754,0-17.655,7.901-17.655,17.655V229.517z"/>
<g>
	<rect x="322.207" y="35.31" style="fill:#FFFFFF;" width="17.655" height="17.655"/>
	<rect x="357.517" y="35.31" style="fill:#FFFFFF;" width="17.655" height="17.655"/>
</g>
<path style="fill:#3596D8;" d="M295.724,388.414v-8.828H83.862v114.759C133.835,427.608,212.356,388.352,295.724,388.414z"/>
<path style="fill:#99C8E0;" d="M183.667,379.586h129.713v-67.354C276.171,344.761,231.68,367.863,183.667,379.586z"/>
<rect x="83.862" y="229.517" style="fill:#EF2648;" width="35.31" height="44.138"/>
<g>
	<path style="fill:#B20D24;" d="M83.862,264.828v8.828h35.31v-44.138C119.172,249.017,103.362,264.828,83.862,264.828z"/>
	<path style="fill:#B20D24;" d="M172.138,264.828v8.828h35.31v-44.138C207.448,249.017,191.638,264.828,172.138,264.828z"/>
	<path style="fill:#B20D24;" d="M260.414,264.828v8.828h35.31v-44.138C295.724,249.017,279.914,264.828,260.414,264.828z"/>
</g>
<path style="fill:#F08015;" d="M438.537,3.452c-8.121,11.882-17.523,22.819-28.054,32.627v16.887h-17.655v-2.251
	c-27.604,20.303-60.116,32.892-94.199,36.467c1.898,0.706,3.902,1.077,5.923,1.095h17.655v35.31l35.31-35.31h70.621
	c9.754,0,17.655-7.901,17.655-17.655V17.655C445.784,12.032,443.083,6.753,438.537,3.452z"/>
<path style="fill:#DDD9D4;" d="M392.828,52.966h17.655V36.078c-5.597,5.217-11.485,10.108-17.655,14.636V52.966z"/>
<path style="fill:#EDC4A2;" d="M222.543,11.388c18.105,22.943,14.186,56.223-8.757,74.328c-19.226,15.175-46.345,15.175-65.571,0
	c17.964,23.084,51.244,27.242,74.328,9.278s27.242-51.244,9.278-74.328C229.12,17.196,226.004,14.08,222.543,11.388z"/>
<g>
</g>
<g>
</g>
<g>
</g>
<g>
</g>
<g>
</g>
<g>
</g>
<g>
</g>
<g>
</g>
<g>
</g>
<g>
</g>
<g>
</g>
<g>
</g>
<g>
</g>
<g>
</g>
<g>
</g>
</svg>
