<?xml version="1.0" encoding="iso-8859-1"?>
<!-- Generator: Adobe Illustrator 19.0.0, SVG Export Plug-In . SVG Version: 6.00 Build 0)  -->
<svg version="1.1" id="Capa_1" xmlns="http://www.w3.org/2000/svg" xmlns:xlink="http://www.w3.org/1999/xlink" x="0px" y="0px"
	 viewBox="0 0 512 512" style="enable-background:new 0 0 512 512;" xml:space="preserve">
<rect x="25.6" y="8.533" style="fill:#B7E5FF;" width="460.8" height="341.333"/>
<rect x="93.867" y="264.533" style="fill:#4DB5FF;" width="34.133" height="51.2"/>
<g>
	<rect x="426.667" y="119.467" style="fill:#FFA511;" width="34.133" height="17.067"/>
	<rect x="324.267" y="187.733" style="fill:#FFA511;" width="85.333" height="17.067"/>
	<rect x="426.667" y="187.733" style="fill:#FFA511;" width="34.133" height="17.067"/>
</g>
<rect x="162.133" y="247.467" style="fill:#EF2648;" width="34.133" height="68.267"/>
<rect x="230.4" y="281.6" style="fill:#FFA511;" width="34.133" height="34.133"/>
<rect x="298.667" y="264.533" style="fill:#FFDC13;" width="34.133" height="51.2"/>
<path style="fill:#EF2648;" d="M452.267,273.067H435.2c-4.71,0-8.533-3.823-8.533-8.533c0-4.71,3.823-8.533,8.533-8.533h17.067
	c4.71,0,8.533,3.823,8.533,8.533C460.8,269.244,456.977,273.067,452.267,273.067z"/>
<path style="fill:#4DB5FF;" d="M401.067,273.067H384c-4.71,0-8.533-3.823-8.533-8.533c0-4.71,3.823-8.533,8.533-8.533h17.067
	c4.71,0,8.533,3.823,8.533,8.533C409.6,269.244,405.777,273.067,401.067,273.067z"/>
<path style="fill:#FFA511;" d="M401.067,307.2H384c-4.71,0-8.533-3.823-8.533-8.533s3.823-8.533,8.533-8.533h17.067
	c4.71,0,8.533,3.823,8.533,8.533S405.777,307.2,401.067,307.2z"/>
<path style="fill:#FFDC13;" d="M452.267,307.2H435.2c-4.71,0-8.533-3.823-8.533-8.533s3.823-8.533,8.533-8.533h17.067
	c4.71,0,8.533,3.823,8.533,8.533S456.977,307.2,452.267,307.2z"/>
<circle style="fill:#EF2648;" cx="281.6" cy="59.733" r="17.067"/>
<circle style="fill:#4DB5FF;" cx="281.6" cy="128" r="17.067"/>
<circle style="fill:#FFA511;" cx="281.6" cy="196.267" r="17.067"/>
<rect x="324.267" y="51.2" style="fill:#EF2648;" width="85.333" height="17.067"/>
<rect x="426.667" y="51.2" style="fill:#FFA511;" width="34.133" height="17.067"/>
<rect x="324.267" y="119.467" style="fill:#4DB5FF;" width="85.333" height="17.067"/>
<path style="fill:#FFA511;" d="M145.067,76.8V42.667c-22.639-0.026-44.356,8.969-60.339,24.994l24.132,24.132
	C118.451,82.176,131.482,76.783,145.067,76.8z"/>
<path style="fill:#EF2648;" d="M196.267,128H230.4c0-47.13-38.204-85.333-85.333-85.333V76.8
	C173.346,76.8,196.267,99.721,196.267,128z"/>
<path style="fill:#4DB5FF;" d="M196.267,128c0,28.279-22.929,51.2-51.209,51.191s-51.191-22.929-51.191-51.2
	c0-13.577,5.393-26.598,14.993-36.198L84.727,67.661c-33.323,33.323-33.323,87.356,0,120.678s87.356,33.323,120.678,0
	c16-16,24.994-37.709,24.994-60.339H196.267z"/>
<path style="fill:#235087;" d="M503.467,17.067H8.533C3.823,17.067,0,13.244,0,8.533S3.823,0,8.533,0h494.933
	C508.177,0,512,3.823,512,8.533S508.177,17.067,503.467,17.067z"/>
<g>
	<path style="fill:#99C8E0;" d="M449.297,119.467H460.8v17.067h-27.469c-17.545,18.193-36.198,35.294-55.842,51.2H409.6V204.8
		h-54.178c-48.606,35.814-102.238,64.239-159.155,84.369V307.2H230.4v-25.6h34.133v25.6h34.133v-42.667H332.8V307.2h17.067
		c4.71,0,8.533,3.823,8.533,8.533c0,4.71-3.823,8.533-8.533,8.533H59.733c-2.5-0.026-4.855-1.161-6.434-3.098
		c-9.173,0.922-18.415,1.596-27.699,2.108v26.59h460.8V73.822C474.752,89.634,462.387,104.849,449.297,119.467z M401.067,307.2H384
		c-4.71,0-8.533-3.823-8.533-8.533s3.823-8.533,8.533-8.533h17.067c4.71,0,8.533,3.823,8.533,8.533S405.777,307.2,401.067,307.2z
		 M401.067,273.067H384c-4.71,0-8.533-3.823-8.533-8.533c0-4.71,3.823-8.533,8.533-8.533h17.067c4.71,0,8.533,3.823,8.533,8.533
		C409.6,269.244,405.777,273.067,401.067,273.067z M452.267,307.2H435.2c-4.71,0-8.533-3.823-8.533-8.533s3.823-8.533,8.533-8.533
		h17.067c4.71,0,8.533,3.823,8.533,8.533S456.977,307.2,452.267,307.2z M452.267,273.067H435.2c-4.71,0-8.533-3.823-8.533-8.533
		c0-4.71,3.823-8.533,8.533-8.533h17.067c4.71,0,8.533,3.823,8.533,8.533C460.8,269.244,456.977,273.067,452.267,273.067z
		 M460.8,204.8h-34.133v-17.067H460.8V204.8z"/>
	<path style="fill:#99C8E0;" d="M162.133,300.066c-8.917,2.569-17.911,4.949-26.982,7.134h26.982V300.066z"/>
</g>
<g>
	<path style="fill:#F08015;" d="M460.8,136.533v-17.067h-11.503c-5.197,5.803-10.556,11.46-15.966,17.067H460.8z"/>
	<path style="fill:#F08015;" d="M409.6,204.8v-17.067h-32.111c-7.228,5.845-14.583,11.529-22.067,17.067H409.6z"/>
	<rect x="426.667" y="187.733" style="fill:#F08015;" width="34.133" height="17.067"/>
</g>
<path style="fill:#B20D24;" d="M162.133,307.2h34.133v-18.031c-11.23,3.968-22.622,7.569-34.133,10.897V307.2z"/>
<rect x="230.4" y="281.6" style="fill:#FFA511;" width="34.133" height="25.6"/>
<rect x="298.667" y="264.533" style="fill:#FFDC13;" width="34.133" height="42.667"/>
<path style="fill:#B20D24;" d="M452.267,256H435.2c-4.71,0-8.533,3.823-8.533,8.533c0,4.71,3.823,8.533,8.533,8.533h17.067
	c4.71,0,8.533-3.823,8.533-8.533C460.8,259.823,456.977,256,452.267,256z"/>
<path style="fill:#3596D8;" d="M401.067,256H384c-4.71,0-8.533,3.823-8.533,8.533c0,4.71,3.823,8.533,8.533,8.533h17.067
	c4.71,0,8.533-3.823,8.533-8.533C409.6,259.823,405.777,256,401.067,256z"/>
<path style="fill:#FFA511;" d="M401.067,290.133H384c-4.71,0-8.533,3.823-8.533,8.533S379.29,307.2,384,307.2h17.067
	c4.71,0,8.533-3.823,8.533-8.533S405.777,290.133,401.067,290.133z"/>
<path style="fill:#FFDC13;" d="M452.267,290.133H435.2c-4.71,0-8.533,3.823-8.533,8.533s3.823,8.533,8.533,8.533h17.067
	c4.71,0,8.533-3.823,8.533-8.533S456.977,290.133,452.267,290.133z"/>
<path style="fill:#235087;" d="M349.867,324.267H59.733c-4.71,0-8.533-3.823-8.533-8.533V230.4c0-4.71,3.823-8.533,8.533-8.533
	s8.533,3.823,8.533,8.533v76.8h281.6c4.71,0,8.533,3.823,8.533,8.533C358.4,320.444,354.577,324.267,349.867,324.267z"/>
<g>
	<path style="fill:#163768;" d="M162.133,307.2h-26.982c-26.94,6.502-54.281,11.17-81.852,13.969
		c1.579,1.937,3.934,3.072,6.434,3.098h290.133c4.71,0,8.533-3.823,8.533-8.533c0-4.71-3.823-8.533-8.533-8.533H162.133z"/>
	<path style="fill:#163768;" d="M110.933,512c-4.71,0-8.533-3.823-8.525-8.542c0-0.913,0.145-1.826,0.435-2.688l51.2-153.6
		c1.493-4.48,6.323-6.903,10.803-5.41c4.48,1.493,6.903,6.323,5.41,10.803l-51.2,153.6C117.897,509.662,114.62,512.009,110.933,512z
		"/>
	<path style="fill:#163768;" d="M401.067,512c-3.669,0-6.929-2.355-8.09-5.837l-51.2-153.6c-1.493-4.48,0.93-9.31,5.41-10.803
		c4.48-1.493,9.31,0.93,10.803,5.41l51.2,153.6c1.493,4.471-0.93,9.301-5.402,10.795C402.91,511.855,401.988,512,401.067,512z"/>
</g>
<path style="fill:#235087;" d="M503.467,358.4H8.533c-4.71,0-8.533-3.823-8.533-8.533c0-4.71,3.823-8.533,8.533-8.533h494.933
	c4.71,0,8.533,3.823,8.533,8.533C512,354.577,508.177,358.4,503.467,358.4z"/>
<g>
</g>
<g>
</g>
<g>
</g>
<g>
</g>
<g>
</g>
<g>
</g>
<g>
</g>
<g>
</g>
<g>
</g>
<g>
</g>
<g>
</g>
<g>
</g>
<g>
</g>
<g>
</g>
<g>
</g>
</svg>
