<?xml version="1.0" encoding="iso-8859-1"?>
<!-- Generator: Adobe Illustrator 19.0.0, SVG Export Plug-In . SVG Version: 6.00 Build 0)  -->
<svg version="1.1" id="Capa_1" xmlns="http://www.w3.org/2000/svg" xmlns:xlink="http://www.w3.org/1999/xlink" x="0px" y="0px"
	 viewBox="0 0 512 512" style="enable-background:new 0 0 512 512;" xml:space="preserve">
<path style="fill:#4DB5FF;" d="M370.759,494.345v-70.621c0-9.754,7.901-17.655,17.655-17.655h35.31l17.655,17.655l17.655-17.655
	h35.31c9.754,0,17.655,7.901,17.655,17.655v70.621c0,9.754-7.901,17.655-17.655,17.655H388.414
	C378.659,512,370.759,504.099,370.759,494.345z"/>
<path style="fill:#3596D8;" d="M501.142,407.428c-21.928,52.639-73.366,86.916-130.383,86.916c0,9.754,7.901,17.655,17.655,17.655
	h105.931c9.754,0,17.655-7.901,17.655-17.655v-70.621C512,416.6,507.719,410.174,501.142,407.428z"/>
<path style="fill:#4DB5FF;" d="M185.379,494.345v-70.621c0-9.754,7.901-17.655,17.655-17.655h35.31L256,423.724l17.655-17.655h35.31
	c9.754,0,17.655,7.901,17.655,17.655v70.621c0,9.754-7.901,17.655-17.655,17.655H203.034
	C193.28,512,185.379,504.099,185.379,494.345z"/>
<path style="fill:#3596D8;" d="M315.763,407.428c-21.928,52.639-73.366,86.916-130.383,86.916c0,9.754,7.901,17.655,17.655,17.655
	h105.931c9.754,0,17.655-7.901,17.655-17.655v-70.621C326.621,416.6,322.339,410.174,315.763,407.428z"/>
<path style="fill:#4DB5FF;" d="M0,494.345v-70.621c0-9.754,7.901-17.655,17.655-17.655h35.31l17.655,17.655l17.655-17.655h35.31
	c9.754,0,17.655,7.901,17.655,17.655v70.621c0,9.754-7.901,17.655-17.655,17.655H17.655C7.901,512,0,504.099,0,494.345z"/>
<circle style="fill:#FFD4B0;" cx="256" cy="44.138" r="44.138"/>
<path style="fill:#EF2648;" d="M203.034,114.759h105.931c9.754,0,17.655,7.901,17.655,17.655v70.621
	c0,9.754-7.901,17.655-17.655,17.655H203.034c-9.754,0-17.655-7.901-17.655-17.655v-70.621
	C185.379,122.659,193.28,114.759,203.034,114.759z"/>
<polygon style="fill:#FFA511;" points="273.655,185.379 264.828,141.241 282.483,114.759 229.517,114.759 247.172,141.241 
	238.345,185.379 256,203.034 "/>
<g>
	<path style="fill:#FFDC13;" d="M450.207,291.31h-17.655v-26.483H79.448v26.483H61.793V256c0-4.873,3.955-8.828,8.828-8.828h370.759
		c4.873,0,8.828,3.955,8.828,8.828V291.31z"/>
	<rect x="247.172" y="220.69" style="fill:#FFDC13;" width="17.655" height="70.621"/>
</g>
<g>
	<polygon style="fill:#235087;" points="79.448,450.207 79.448,414.897 70.621,423.724 61.793,414.897 61.793,450.207 	"/>
	<polygon style="fill:#235087;" points="264.828,450.207 264.828,414.897 256,423.724 247.172,414.897 247.172,450.207 	"/>
	<polygon style="fill:#235087;" points="450.207,450.207 450.207,414.897 441.379,423.724 432.552,414.897 432.552,450.207 	"/>
</g>
<path style="fill:#B20D24;" d="M272.022,177.231l1.633,8.148L256,203.034l-11.476-11.476c-18.794,7.574-38.877,11.476-59.145,11.476
	c0,9.754,7.901,17.655,17.655,17.655h105.931c9.754,0,17.655-7.901,17.655-17.655v-70.621c0-3.558-1.077-7.027-3.09-9.958
	C310.969,144.561,293.314,163.337,272.022,177.231z"/>
<path style="fill:#F08015;" d="M256,203.034l17.655-17.655l-1.633-8.148c-8.669,5.667-17.885,10.47-27.498,14.327L256,203.034z"/>
<path style="fill:#EDC4A2;" d="M282.377,8.934c14.671,19.341,10.884,46.91-8.448,61.581c-15.704,11.917-37.429,11.917-53.133,0
	c14.504,19.509,42.072,23.57,61.581,9.075s23.57-42.072,9.075-61.581C288.883,14.557,285.828,11.494,282.377,8.934z"/>
<circle style="fill:#FFD4B0;" cx="256" cy="335.448" r="44.138"/>
<path style="fill:#EDC4A2;" d="M282.377,300.244c14.671,19.341,10.884,46.91-8.448,61.581c-15.704,11.917-37.429,11.917-53.133,0
	c14.504,19.509,42.072,23.57,61.581,9.075c19.509-14.504,23.57-42.072,9.075-61.581
	C288.883,305.867,285.828,302.804,282.377,300.244z"/>
<circle style="fill:#FFD4B0;" cx="441.379" cy="335.448" r="44.138"/>
<path style="fill:#EDC4A2;" d="M467.756,300.244c14.671,19.341,10.884,46.91-8.448,61.581c-15.704,11.917-37.429,11.917-53.133,0
	c14.504,19.509,42.072,23.57,61.581,9.075c19.509-14.495,23.57-42.072,9.075-61.581
	C474.262,305.867,471.208,302.804,467.756,300.244z"/>
<circle style="fill:#FFD4B0;" cx="70.621" cy="335.448" r="44.138"/>
<path style="fill:#EDC4A2;" d="M96.998,300.244c14.671,19.341,10.884,46.91-8.448,61.581c-15.704,11.917-37.429,11.917-53.133,0
	c14.504,19.509,42.072,23.57,61.581,9.075c19.509-14.504,23.57-42.072,9.075-61.581C103.503,305.867,100.449,302.804,96.998,300.244
	z"/>
<path style="fill:#3596D8;" d="M130.383,407.428C108.456,460.067,57.017,494.345,0,494.345C0,504.099,7.901,512,17.655,512h105.931
	c9.754,0,17.655-7.901,17.655-17.655v-70.621C141.241,416.6,136.96,410.174,130.383,407.428z"/>
<g>
</g>
<g>
</g>
<g>
</g>
<g>
</g>
<g>
</g>
<g>
</g>
<g>
</g>
<g>
</g>
<g>
</g>
<g>
</g>
<g>
</g>
<g>
</g>
<g>
</g>
<g>
</g>
<g>
</g>
</svg>
