<?xml version="1.0" encoding="iso-8859-1"?>
<!-- Generator: Adobe Illustrator 19.0.0, SVG Export Plug-In . SVG Version: 6.00 Build 0)  -->
<svg version="1.1" id="Capa_1" xmlns="http://www.w3.org/2000/svg" xmlns:xlink="http://www.w3.org/1999/xlink" x="0px" y="0px"
	 viewBox="0 0 512 512" style="enable-background:new 0 0 512 512;" xml:space="preserve">
<g>
	<rect x="25.6" y="42.667" style="fill:#EF2648;" width="170.667" height="307.2"/>
	<polygon style="fill:#EF2648;" points="315.733,42.667 230.4,76.8 230.4,384 315.733,349.867 	"/>
</g>
<rect y="349.867" style="fill:#4DB5FF;" width="512" height="119.467"/>
<path style="fill:#3596D8;" d="M145.067,375.467c97.963-0.119,193.075,32.973,269.815,93.867H512V349.867H0v50.458
	C46.592,383.846,95.65,375.441,145.067,375.467z"/>
<rect x="315.733" y="42.667" style="fill:#B7E5FF;" width="170.667" height="307.2"/>
<path style="fill:#96D0EA;" d="M315.733,315.733v34.133H486.4v-204.8C486.4,239.326,409.993,315.733,315.733,315.733z"/>
<g>
	<path style="fill:#235087;" d="M256,221.867c-1.118-0.017-2.219-0.247-3.243-0.683c-1.033-0.435-1.988-1.041-2.816-1.792
		c-1.604-1.604-2.5-3.789-2.475-6.059c-0.026-1.118,0.205-2.227,0.683-3.243c0.435-1.033,1.041-1.988,1.792-2.816
		c3.422-3.157,8.695-3.157,12.117,0c0.751,0.828,1.357,1.783,1.792,2.816c1.357,3.174,0.649,6.861-1.792,9.301
		c-0.828,0.751-1.783,1.357-2.816,1.792C258.219,221.619,257.118,221.85,256,221.867z"/>
	<path style="fill:#235087;" d="M170.667,204.8c-1.118-0.017-2.219-0.247-3.243-0.683c-1.033-0.435-1.988-1.041-2.816-1.792
		c-0.751-0.828-1.357-1.783-1.792-2.816c-0.478-1.015-0.708-2.125-0.683-3.243c0.026-2.261,0.913-4.429,2.475-6.059
		c2.039-1.963,4.898-2.825,7.68-2.304c0.572,0.077,1.118,0.256,1.63,0.512c0.546,0.188,1.058,0.444,1.536,0.768
		c0.444,0.316,0.87,0.657,1.28,1.024c1.57,1.63,2.458,3.797,2.466,6.059c0.051,4.668-3.695,8.482-8.363,8.533
		C170.778,204.8,170.726,204.8,170.667,204.8z"/>
</g>
<g>
	<path style="fill:#FFA511;" d="M401.067,281.6c-18.85,0-34.133-15.283-34.133-34.133s15.283-34.133,34.133-34.133
		s34.133,15.283,34.133,34.133S419.917,281.6,401.067,281.6z M401.067,230.4c-9.429,0-17.067,7.637-17.067,17.067
		s7.637,17.067,17.067,17.067c9.429,0,17.067-7.637,17.067-17.067S410.496,230.4,401.067,230.4z"/>
	<path style="fill:#FFA511;" d="M401.067,230.4c-4.71,0-8.533-3.823-8.533-8.533v-102.4c0-4.71,3.823-8.533,8.533-8.533h25.6
		c4.71,0,8.533,3.823,8.533,8.533c0,4.71-3.823,8.533-8.533,8.533H409.6v93.867C409.6,226.577,405.777,230.4,401.067,230.4z"/>
	<path style="fill:#FFA511;" d="M426.667,162.133h-25.6c-4.71,0-8.533-3.823-8.533-8.533s3.823-8.533,8.533-8.533h25.6
		c4.71,0,8.533,3.823,8.533,8.533S431.377,162.133,426.667,162.133z"/>
</g>
<g>
	<path style="fill:#FFDC13;" d="M401.067,93.867c-4.71,0-8.533-3.823-8.533-8.533V76.8c0-4.71,3.823-8.533,8.533-8.533
		S409.6,72.09,409.6,76.8v8.533C409.6,90.044,405.777,93.867,401.067,93.867z"/>
	<path style="fill:#FFDC13;" d="M401.067,324.267c-4.71,0-8.533-3.823-8.533-8.533V307.2c0-4.71,3.823-8.533,8.533-8.533
		s8.533,3.823,8.533,8.533v8.533C409.6,320.444,405.777,324.267,401.067,324.267z"/>
	<path style="fill:#FFDC13;" d="M370.142,97.946c-3.857-0.009-7.236-2.603-8.235-6.332l-2.21-8.235
		c-1.22-4.557,1.476-9.233,6.033-10.453c4.557-1.22,9.233,1.476,10.453,6.033l2.21,8.243c1.212,4.548-1.485,9.225-6.033,10.445
		C371.635,97.843,370.893,97.946,370.142,97.946z"/>
	<path style="fill:#FFDC13;" d="M434.185,319.898c-3.857,0-7.236-2.594-8.235-6.323l-2.21-8.243
		c-1.195-4.557,1.527-9.225,6.084-10.419c4.531-1.186,9.165,1.493,10.402,6.007l2.21,8.235c1.22,4.548-1.476,9.233-6.033,10.453l0,0
		C435.678,319.804,434.936,319.898,434.185,319.898z"/>
	<path style="fill:#FFDC13;" d="M431.991,97.946c-0.751,0-1.493-0.102-2.219-0.299c-4.548-1.22-7.245-5.897-6.033-10.445l2.21-8.243
		c1.22-4.557,5.897-7.253,10.453-6.033c4.557,1.22,7.253,5.897,6.033,10.453l0,0l-2.21,8.235
		C439.228,95.343,435.849,97.937,431.991,97.946z"/>
	<path style="fill:#FFDC13;" d="M367.949,319.898c-0.751,0-1.493-0.094-2.219-0.29c-4.548-1.22-7.253-5.897-6.033-10.453l0,0
		l2.21-8.235c1.237-4.548,5.931-7.228,10.479-5.99c4.514,1.229,7.194,5.871,6.007,10.402l-2.21,8.243
		C375.185,317.303,371.806,319.898,367.949,319.898z"/>
</g>
<path style="fill:#B20D24;" d="M230.4,336.324V384l85.333-34.133v-128C315.716,274.688,281.02,321.229,230.4,336.324z"/>
<path style="fill:#EF2648;" d="M196.267,89.6V42.667h-42.974C170.419,55.492,185.003,71.407,196.267,89.6z"/>
<path style="fill:#B20D24;" d="M51.2,349.867h145.067V268.8C165.257,319.172,110.345,349.858,51.2,349.867z"/>
<g>
</g>
<g>
</g>
<g>
</g>
<g>
</g>
<g>
</g>
<g>
</g>
<g>
</g>
<g>
</g>
<g>
</g>
<g>
</g>
<g>
</g>
<g>
</g>
<g>
</g>
<g>
</g>
<g>
</g>
</svg>
