<?xml version="1.0" encoding="iso-8859-1"?>
<!-- Generator: Adobe Illustrator 19.0.0, SVG Export Plug-In . SVG Version: 6.00 Build 0)  -->
<svg version="1.1" id="Capa_1" xmlns="http://www.w3.org/2000/svg" xmlns:xlink="http://www.w3.org/1999/xlink" x="0px" y="0px"
	 viewBox="0 0 512 512" style="enable-background:new 0 0 512 512;" xml:space="preserve">
<path style="fill:#FFD4B0;" d="M189.793,141.241V97.103h141.241v44.138c0,39-31.62,70.621-70.621,70.621l0,0
	C221.414,211.862,189.793,180.242,189.793,141.241z"/>
<path style="fill:#4DB5FF;" d="M136.828,512V326.621c0-48.755,39.521-88.276,88.276-88.276h70.621
	c48.755,0,88.276,39.521,88.276,88.276V512H136.828z"/>
<polygon style="fill:#FFA511;" points="172.138,97.103 348.69,97.103 348.69,17.655 304.552,44.138 260.414,0 216.276,44.138 
	172.138,17.655 "/>
<polygon style="fill:#235087;" points="286.897,414.897 269.241,273.655 286.897,238.345 233.931,238.345 251.586,273.655 
	233.931,414.897 260.414,441.379 "/>
<g>
	<path style="fill:#FFDC13;" d="M419.31,150.069c-4.873,0-8.828-3.955-8.828-8.828s3.955-8.828,8.828-8.828
		c14.627,0,26.483-11.855,26.483-26.483c0-4.873,3.955-8.828,8.828-8.828c4.873,0,8.828,3.955,8.828,8.828
		C463.422,130.295,443.674,150.042,419.31,150.069z"/>
	<path style="fill:#FFDC13;" d="M489.931,150.069c-24.364-0.026-44.111-19.774-44.138-44.138c0-4.873,3.955-8.828,8.828-8.828
		c4.873,0,8.828,3.955,8.828,8.828c0,14.627,11.855,26.483,26.483,26.483c4.873,0,8.828,3.955,8.828,8.828
		S494.804,150.069,489.931,150.069z"/>
	<path style="fill:#FFDC13;" d="M454.621,185.379c-4.873,0-8.828-3.955-8.828-8.828c0-14.627-11.855-26.483-26.483-26.483
		c-4.873,0-8.828-3.955-8.828-8.828s3.955-8.828,8.828-8.828c24.364,0.026,44.111,19.774,44.138,44.138
		C463.448,181.425,459.493,185.379,454.621,185.379z"/>
	<path style="fill:#FFDC13;" d="M454.621,185.379c-4.873,0-8.828-3.955-8.828-8.828c0.026-24.364,19.774-44.111,44.138-44.138
		c4.873,0,8.828,3.955,8.828,8.828s-3.955,8.828-8.828,8.828c-14.627,0-26.483,11.855-26.483,26.483
		C463.448,181.425,459.493,185.379,454.621,185.379z"/>
	<path style="fill:#FFDC13;" d="M48.552,247.172c-4.873,0-8.828-3.955-8.828-8.828c0-4.873,3.955-8.828,8.828-8.828
		c14.627,0,26.483-11.855,26.483-26.483c0-4.873,3.955-8.828,8.828-8.828s8.828,3.955,8.828,8.828
		C92.663,227.399,72.916,247.146,48.552,247.172z"/>
	<path style="fill:#FFDC13;" d="M119.172,247.172c-24.364-0.026-44.111-19.774-44.138-44.138c0-4.873,3.955-8.828,8.828-8.828
		s8.828,3.955,8.828,8.828c0,14.627,11.855,26.483,26.483,26.483c4.873,0,8.828,3.955,8.828,8.828
		C128,243.218,124.045,247.172,119.172,247.172z"/>
	<path style="fill:#FFDC13;" d="M83.862,282.483c-4.873,0-8.828-3.955-8.828-8.828c0-14.627-11.855-26.483-26.483-26.483
		c-4.873,0-8.828-3.955-8.828-8.828c0-4.873,3.955-8.828,8.828-8.828c24.364,0.026,44.111,19.774,44.138,44.138
		C92.69,278.528,88.735,282.483,83.862,282.483z"/>
	<path style="fill:#FFDC13;" d="M83.862,282.483c-4.873,0-8.828-3.955-8.828-8.828c0.026-24.364,19.774-44.111,44.138-44.138
		c4.873,0,8.828,3.955,8.828,8.828c0,4.873-3.955,8.828-8.828,8.828c-14.627,0-26.483,11.855-26.483,26.483
		C92.69,278.528,88.735,282.483,83.862,282.483z"/>
	<path style="fill:#FFDC13;" d="M22.069,88.276c-4.873,0-8.828-3.955-8.828-8.828c0-4.873,3.955-8.828,8.828-8.828
		c14.627,0,26.483-11.855,26.483-26.483c0-4.873,3.955-8.828,8.828-8.828s8.828,3.955,8.828,8.828
		C66.18,68.502,46.433,88.249,22.069,88.276z"/>
	<path style="fill:#FFDC13;" d="M92.69,88.276c-24.364-0.026-44.111-19.774-44.138-44.138c0-4.873,3.955-8.828,8.828-8.828
		s8.828,3.955,8.828,8.828c0,14.627,11.855,26.483,26.483,26.483c4.873,0,8.828,3.955,8.828,8.828
		C101.517,84.321,97.562,88.276,92.69,88.276z"/>
	<path style="fill:#FFDC13;" d="M57.379,123.586c-4.873,0-8.828-3.955-8.828-8.828c0-14.627-11.855-26.483-26.483-26.483
		c-4.873,0-8.828-3.955-8.828-8.828c0-4.873,3.955-8.828,8.828-8.828c24.364,0.026,44.111,19.774,44.138,44.138
		C66.207,119.631,62.252,123.586,57.379,123.586z"/>
	<path style="fill:#FFDC13;" d="M57.379,123.586c-4.873,0-8.828-3.955-8.828-8.828c0.026-24.364,19.774-44.111,44.138-44.138
		c4.873,0,8.828,3.955,8.828,8.828c0,4.873-3.955,8.828-8.828,8.828c-14.627,0-26.483,11.855-26.483,26.483
		C66.207,119.631,62.252,123.586,57.379,123.586z"/>
</g>
<g>
	<path style="fill:#F08015;" d="M172.138,97.103h8.828c-2.957,0-5.897-0.106-8.828-0.221V97.103z"/>
	<path style="fill:#F08015;" d="M180.966,97.103H348.69V17.655l-4.59,2.754C303.89,69.041,244.065,97.165,180.966,97.103z"/>
</g>
<path style="fill:#3596D8;" d="M136.828,497.532V512H384V326.621c-0.035-4.546-0.415-9.084-1.148-13.568
	C334.354,409.759,243.253,478.067,136.828,497.532z"/>
<path style="fill:#EDC4A2;" d="M322.207,97.103v26.483c-0.026,39-31.665,70.603-70.674,70.568
	c-23.164-0.018-44.844-11.388-58.024-30.438c12.482,36.952,52.559,56.779,89.512,44.297c28.654-9.684,47.96-36.529,48.013-66.772
	V97.103C331.034,97.103,322.207,97.103,322.207,97.103z"/>
<g>
</g>
<g>
</g>
<g>
</g>
<g>
</g>
<g>
</g>
<g>
</g>
<g>
</g>
<g>
</g>
<g>
</g>
<g>
</g>
<g>
</g>
<g>
</g>
<g>
</g>
<g>
</g>
<g>
</g>
</svg>
