<?xml version="1.0" encoding="iso-8859-1"?>
<!-- Generator: Adobe Illustrator 19.0.0, SVG Export Plug-In . SVG Version: 6.00 Build 0)  -->
<svg version="1.1" id="Capa_1" xmlns="http://www.w3.org/2000/svg" xmlns:xlink="http://www.w3.org/1999/xlink" x="0px" y="0px"
	 viewBox="0 0 512 512" style="enable-background:new 0 0 512 512;" xml:space="preserve">
<rect x="4.414" y="88.276" style="fill:#2DB357;" width="194.207" height="123.586"/>
<g>
	<path style="fill:#045D32;" d="M163.31,88.276h35.31v35.31l0,0C179.121,123.586,163.31,107.776,163.31,88.276z"/>
	<path style="fill:#045D32;" d="M4.414,176.552L4.414,176.552c19.5,0,35.31,15.81,35.31,35.31H4.414V176.552z"/>
	<path style="fill:#045D32;" d="M198.621,176.552L198.621,176.552v35.31h-35.31C163.31,192.362,179.121,176.552,198.621,176.552z"/>
</g>
<path style="fill:#FFDC13;" d="M233.931,300.138l0.839-9.19c4.961-54.643-18.741-107.953-62.632-140.879l0,0
	c27.577-5.517,56.082,3.116,75.97,23.005l3.478,3.478l0,0c5.526-38.7,29.696-72.227,64.662-89.706l14.786-7.398v8.828l0,0
	c-28.522,34.225-44.138,77.365-44.138,121.909v89.953H233.931z"/>
<rect x="128" y="300.138" style="fill:#EF2648;" width="264.828" height="52.966"/>
<polygon style="fill:#FFA511;" points="145.655,353.103 375.172,353.103 348.69,512 172.138,512 "/>
<g>
	<circle style="fill:#045D32;" cx="101.517" cy="150.069" r="26.483"/>
	<path style="fill:#045D32;" d="M4.414,88.276h35.31c0,19.5-15.81,35.31-35.31,35.31l0,0V88.276z"/>
</g>
<path style="fill:#FFA511;" d="M248.108,173.074l3.478,3.478c2.392-16.287,8.139-31.903,16.878-45.85
	c-11.255-22.899-18.829-47.422-22.457-72.678l-3.249-22.713l-4.811,19.235c-8.351,33.501-12.641,67.875-12.782,102.4
	C233.666,160.998,241.417,166.453,248.108,173.074z"/>
<path style="fill:#F08015;" d="M154.483,370.759c78.654-0.053,152.947,36.122,201.401,98.074l19.288-115.73H145.655l2.966,17.805
	C150.581,370.865,152.514,370.759,154.483,370.759z"/>
<path style="fill:#B20D24;" d="M136.828,344.276c-2.957,0-5.879-0.168-8.828-0.221v9.048h264.828v-52.966H339.05
	C275.624,329.278,206.627,344.338,136.828,344.276z"/>
<path style="fill:#E5AF17;" d="M235.352,278.572c-0.053,4.114-0.212,8.236-0.583,12.359l-0.839,9.207h52.966v-68.996
	C274.635,251.577,256.742,268.05,235.352,278.572z"/>
<path style="fill:#1F9342;" d="M38.603,203.449c0.715,2.745,1.095,5.57,1.121,8.413H163.31c0-19.5,15.81-35.31,35.31-35.31v-52.966
	c-5.809-0.035-11.511-1.527-16.596-4.326C143.431,160.68,93.581,189.943,38.603,203.449z"/>
<g>
	<path style="fill:#05492C;" d="M182.025,119.261c5.085,2.798,10.787,4.29,16.596,4.326V99.84
		C193.368,106.549,187.842,113.02,182.025,119.261z"/>
	<path style="fill:#05492C;" d="M4.414,209.655v2.207h35.31c-0.026-2.842-0.406-5.667-1.121-8.413
		C27.339,206.204,15.925,208.278,4.414,209.655z"/>
	<path style="fill:#05492C;" d="M163.31,211.862h35.31v-35.31C179.121,176.552,163.31,192.362,163.31,211.862z"/>
</g>
<rect x="313.379" style="fill:#2DB357;" width="194.207" height="123.586"/>
<g>
	<path style="fill:#045D32;" d="M472.276,0h35.31v35.31l0,0C488.086,35.31,472.276,19.5,472.276,0z"/>
	<path style="fill:#045D32;" d="M313.379,88.276L313.379,88.276c19.5,0,35.31,15.81,35.31,35.31h-35.31V88.276z"/>
	<path style="fill:#045D32;" d="M507.586,88.276L507.586,88.276v35.31h-35.31C472.276,104.086,488.086,88.276,507.586,88.276z"/>
	<circle style="fill:#045D32;" cx="410.483" cy="61.793" r="26.483"/>
	<path style="fill:#045D32;" d="M313.379,0h35.31c0,19.5-15.81,35.31-35.31,35.31l0,0V0z"/>
</g>
<path style="fill:#1F9342;" d="M347.569,115.174c0.715,2.745,1.095,5.57,1.121,8.413h123.586c0-19.5,15.81-35.31,35.31-35.31V35.31
	c-5.809-0.035-11.511-1.527-16.596-4.326C452.396,72.404,402.547,101.667,347.569,115.174z"/>
<g>
	<path style="fill:#05492C;" d="M490.99,30.985c5.085,2.798,10.787,4.29,16.596,4.326V11.564
		C502.334,18.273,496.808,24.744,490.99,30.985z"/>
	<path style="fill:#05492C;" d="M313.379,121.379v2.207h35.31c-0.026-2.842-0.406-5.667-1.121-8.413
		C336.305,117.928,324.891,120.002,313.379,121.379z"/>
	<path style="fill:#05492C;" d="M472.276,123.586h35.31v-35.31C488.086,88.276,472.276,104.086,472.276,123.586z"/>
</g>
<g>
</g>
<g>
</g>
<g>
</g>
<g>
</g>
<g>
</g>
<g>
</g>
<g>
</g>
<g>
</g>
<g>
</g>
<g>
</g>
<g>
</g>
<g>
</g>
<g>
</g>
<g>
</g>
<g>
</g>
</svg>
