<?xml version="1.0" encoding="iso-8859-1"?>
<!-- Generator: Adobe Illustrator 19.0.0, SVG Export Plug-In . SVG Version: 6.00 Build 0)  -->
<svg version="1.1" id="Capa_1" xmlns="http://www.w3.org/2000/svg" xmlns:xlink="http://www.w3.org/1999/xlink" x="0px" y="0px"
	 viewBox="0 0 512 512" style="enable-background:new 0 0 512 512;" xml:space="preserve">
<path style="fill:#FFDC13;" d="M326.621,423.724H185.379c-3.107-0.018-6.153-0.865-8.828-2.445v36.961
	c2.913,0.512,5.87,0.777,8.828,0.794h17.655V512h105.931v-52.966h17.655c2.957-0.018,5.914-0.283,8.828-0.794v-36.961
	C332.773,422.859,329.728,423.706,326.621,423.724z"/>
<circle style="fill:#FFD4B0;" cx="256" cy="361.931" r="35.31"/>
<g>
	<path style="fill:#4DB5FF;" d="M167.724,185.379v-61.793c0-4.873-3.955-8.828-8.828-8.828H88.276v26.483L44.138,97.103
		l44.138-44.138v26.483h79.448c19.5,0,35.31,15.81,35.31,35.31v70.621H167.724z"/>
	<path style="fill:#4DB5FF;" d="M308.966,185.379v-70.621c0-19.5,15.81-35.31,35.31-35.31h79.448V52.966l44.138,44.138
		l-44.138,44.138v-26.483h-70.621c-4.873,0-8.828,3.955-8.828,8.828v61.793H308.966z"/>
	<polygon style="fill:#4DB5FF;" points="238.345,185.379 238.345,44.138 211.862,44.138 256,0 300.138,44.138 273.655,44.138 
		273.655,185.379 	"/>
</g>
<g>
	<path style="fill:#EF2648;" d="M264.828,273.655h-17.655c0-14.627,11.855-26.483,26.483-26.483c4.873,0,8.828-3.955,8.828-8.828
		c0-4.873-3.955-8.828-8.828-8.828h-26.483c-4.873,0-8.828,3.955-8.828,8.828H220.69c0-14.627,11.855-26.483,26.483-26.483h26.483
		c14.627,0,26.483,11.855,26.483,26.483c0,14.627-11.855,26.483-26.483,26.483C268.782,264.828,264.828,268.782,264.828,273.655z"/>
	<rect x="247.172" y="282.483" style="fill:#EF2648;" width="17.655" height="17.655"/>
</g>
<g>
	<path style="fill:#FFD4B0;" d="M167.724,406.069v-35.31c0-9.754-7.901-17.655-17.655-17.655h-17.655
		c-9.754,0-17.655,7.901-17.655,17.655l0,0c0,9.754,7.901,17.655,17.655,17.655v17.655c0.026,25.829,18.67,47.863,44.138,52.171
		v-36.961C171.105,418.145,167.742,412.354,167.724,406.069z"/>
	<path style="fill:#FFD4B0;" d="M379.586,353.103h-17.655c-9.754,0-17.655,7.901-17.655,17.655v35.31
		c-0.018,6.285-3.381,12.076-8.828,15.21v36.961c25.468-4.308,44.111-26.342,44.138-52.171v-17.655
		c9.754,0,17.655-7.901,17.655-17.655C397.241,361.004,389.341,353.103,379.586,353.103z"/>
</g>
<g>
	<path style="fill:#3596D8;" d="M167.724,185.379h35.31v-42.637c-11.661,1.924-23.411,3.531-35.31,4.705V185.379z"/>
	<path style="fill:#3596D8;" d="M308.966,114.759v70.621h35.31v-61.793c0-4.873,3.955-8.828,8.828-8.828h70.621v26.483
		l44.138-44.138l-44.138-44.138v26.483h-42.505c-23.164,13.224-47.281,24.7-72.157,34.339
		C309.054,114.114,308.966,114.423,308.966,114.759z"/>
	<path style="fill:#3596D8;" d="M238.345,185.379h35.31v-59.145c-11.591,3.575-23.402,6.647-35.31,9.446V185.379z"/>
</g>
<path style="fill:#EDC4A2;" d="M281.856,338.035c3.522,19.103-9.11,37.455-28.213,40.978c-11.926,2.198-24.143-1.898-32.327-10.84
	c3.372,19.182,21.654,32,40.836,28.637c19.182-3.363,32-21.654,28.637-40.836C289.607,349.255,286.508,343.022,281.856,338.035z"/>
<path style="fill:#E5AF17;" d="M203.034,503.172V512h105.931v-52.966h17.655c2.957-0.018,5.914-0.283,8.828-0.794v-36.961
	c-1.651,0.927-3.443,1.58-5.297,1.951C306.653,472.082,257.245,503.155,203.034,503.172z"/>
<g>
</g>
<g>
</g>
<g>
</g>
<g>
</g>
<g>
</g>
<g>
</g>
<g>
</g>
<g>
</g>
<g>
</g>
<g>
</g>
<g>
</g>
<g>
</g>
<g>
</g>
<g>
</g>
<g>
</g>
</svg>
