<?xml version="1.0" encoding="iso-8859-1"?>
<!-- Generator: Adobe Illustrator 19.0.0, SVG Export Plug-In . SVG Version: 6.00 Build 0)  -->
<svg version="1.1" id="Capa_1" xmlns="http://www.w3.org/2000/svg" xmlns:xlink="http://www.w3.org/1999/xlink" x="0px" y="0px"
	 viewBox="0 0 512 512" style="enable-background:new 0 0 512 512;" xml:space="preserve">
<circle style="fill:#FFD4B0;" cx="256" cy="167.724" r="26.483"/>
<path style="fill:#4DB5FF;" d="M194.207,512v-26.483c0-34.127,27.666-61.793,61.793-61.793l0,0l0,0
	c34.127,0,61.793,27.666,61.793,61.793l0,0V512H194.207z"/>
<path style="fill:#B7E5FF;" d="M194.207,308.966v-26.483c0-34.127,27.666-61.793,61.793-61.793l0,0
	c34.127,0,61.793,27.666,61.793,61.793v26.483H194.207z"/>
<rect x="70.621" y="0" style="fill:#FFA511;" width="370.759" height="105.931"/>
<g>
	<rect x="397.241" y="26.483" style="fill:#FFFFFF;" width="17.655" height="17.655"/>
	<rect x="326.621" y="61.793" style="fill:#FFFFFF;" width="17.655" height="17.655"/>
	<rect x="361.931" y="61.793" style="fill:#FFFFFF;" width="52.966" height="17.655"/>
</g>
<path style="fill:#FFDC13;" d="M105.931,79.448c-4.873,0-8.828-3.955-8.828-8.828c0-3.531,2.101-6.718,5.35-8.113l61.793-26.483
	c1.774-0.768,3.743-0.927,5.614-0.45l67.743,16.931l59.057-25.309c4.449-1.986,9.675,0.018,11.652,4.467
	c1.986,4.449-0.018,9.675-4.467,11.652c-0.079,0.035-0.15,0.071-0.23,0.097l-61.793,26.483c-1.774,0.75-3.743,0.909-5.614,0.45
	l-67.743-16.931l-59.057,25.309C108.314,79.201,107.123,79.448,105.931,79.448z"/>
<rect x="326.621" y="26.483" style="fill:#FFFFFF;" width="52.966" height="17.655"/>
<path style="fill:#F08015;" d="M414.897,26.483v17.655h-17.655V32.221c-17.046,11.414-34.728,21.839-52.966,31.241v15.987h-17.655
	v-7.186c-29.723,14.045-60.672,25.318-92.469,33.668h207.228V0h-1.033c-11.246,9.313-22.952,18.088-34.948,26.483H414.897z
	 M414.897,79.448h-52.966V61.793h52.966V79.448z"/>
<g>
	<path style="fill:#DDD9D4;" d="M414.897,44.138V26.483h-9.498c-2.719,1.907-5.394,3.875-8.157,5.738v11.917H414.897z"/>
	<path style="fill:#DDD9D4;" d="M344.276,79.448V63.462c-5.835,3.019-11.697,5.994-17.655,8.828v7.159H344.276z"/>
	<rect x="361.931" y="61.793" style="fill:#DDD9D4;" width="52.966" height="17.655"/>
</g>
<path style="fill:#99C8E0;" d="M194.207,300.138v8.828h123.586v-26.483c0.009-16.031-6.232-31.426-17.399-42.929
	C278.193,277.098,237.824,300.129,194.207,300.138z"/>
<path style="fill:#3596D8;" d="M194.207,503.172V512h123.586v-26.483c0.009-16.031-6.232-31.426-17.399-42.929
	C278.193,480.132,237.824,503.164,194.207,503.172z"/>
<path style="fill:#4DB5FF;" d="M388.414,512v-26.483c0-34.127,27.666-61.793,61.793-61.793l0,0l0,0
	c34.127,0,61.793,27.666,61.793,61.793l0,0V512H388.414z"/>
<path style="fill:#3596D8;" d="M388.414,503.172V512H512v-26.483c0.009-16.031-6.232-31.426-17.399-42.929
	C472.399,480.132,432.031,503.164,388.414,503.172z"/>
<path style="fill:#4DB5FF;" d="M0,512v-26.483c0-34.127,27.666-61.793,61.793-61.793l0,0l0,0c34.127,0,61.793,27.666,61.793,61.793
	l0,0V512H0z"/>
<path style="fill:#3596D8;" d="M0,503.172V512h123.586v-26.483c0.009-16.031-6.232-31.426-17.399-42.929
	C83.986,480.132,43.617,503.164,0,503.172z"/>
<path style="fill:#EDC4A2;" d="M269.718,145.178c2.56,4.122,3.919,8.872,3.937,13.718c0,14.627-11.855,26.483-26.483,26.483
	c-4.846-0.018-9.596-1.377-13.718-3.937c7.539,12.482,23.782,16.49,36.264,8.951c12.482-7.539,16.49-23.782,8.951-36.264
	C276.454,150.466,273.382,147.394,269.718,145.178z"/>
<circle style="fill:#FFD4B0;" cx="256" cy="370.759" r="26.483"/>
<path style="fill:#EDC4A2;" d="M269.718,348.213c2.56,4.122,3.919,8.872,3.937,13.718c0,14.627-11.855,26.483-26.483,26.483
	c-4.846-0.018-9.596-1.377-13.718-3.937c7.539,12.482,23.782,16.49,36.264,8.951c12.482-7.539,16.49-23.782,8.951-36.264
	C276.454,353.501,273.382,350.429,269.718,348.213z"/>
<circle style="fill:#FFD4B0;" cx="450.207" cy="370.759" r="26.483"/>
<path style="fill:#EDC4A2;" d="M463.925,348.213c2.56,4.122,3.919,8.872,3.937,13.718c0,14.627-11.855,26.483-26.483,26.483
	c-4.846-0.018-9.596-1.377-13.718-3.937c7.539,12.482,23.782,16.49,36.264,8.951c12.482-7.539,16.49-23.782,8.951-36.264
	C470.66,353.501,467.588,350.429,463.925,348.213z"/>
<circle style="fill:#FFD4B0;" cx="61.793" cy="370.759" r="26.483"/>
<path style="fill:#EDC4A2;" d="M75.511,348.213c2.56,4.122,3.919,8.872,3.937,13.718c0,14.627-11.855,26.483-26.483,26.483
	c-4.846-0.018-9.596-1.377-13.718-3.937c7.539,12.482,23.782,16.49,36.264,8.951c12.482-7.539,16.49-23.782,8.951-36.264
	C82.247,353.501,79.175,350.429,75.511,348.213z"/>
<g>
</g>
<g>
</g>
<g>
</g>
<g>
</g>
<g>
</g>
<g>
</g>
<g>
</g>
<g>
</g>
<g>
</g>
<g>
</g>
<g>
</g>
<g>
</g>
<g>
</g>
<g>
</g>
<g>
</g>
</svg>
