<?xml version="1.0" encoding="iso-8859-1"?>
<!-- Generator: Adobe Illustrator 19.0.0, SVG Export Plug-In . SVG Version: 6.00 Build 0)  -->
<svg version="1.1" id="Capa_1" xmlns="http://www.w3.org/2000/svg" xmlns:xlink="http://www.w3.org/1999/xlink" x="0px" y="0px"
	 viewBox="0 0 512 512" style="enable-background:new 0 0 512 512;" xml:space="preserve">
<circle style="fill:#FFD4B0;" cx="256" cy="44.138" r="44.138"/>
<path style="fill:#4DB5FF;" d="M185.379,203.034v-70.621c0-9.754,7.901-17.655,17.655-17.655h35.31L256,132.414l17.655-17.655h35.31
	c9.754,0,17.655,7.901,17.655,17.655v70.621c0,9.754-7.901,17.655-17.655,17.655H203.034
	C193.28,220.69,185.379,212.789,185.379,203.034z"/>
<g>
	<path style="fill:#235087;" d="M88.276,264.828c-4.873,0-8.828-3.955-8.828-8.828c0-2.339,0.927-4.582,2.586-6.241l61.793-61.793
		c3.505-3.39,9.092-3.293,12.482,0.221c3.302,3.425,3.302,8.845,0,12.262l-61.793,61.793
		C92.866,263.901,90.615,264.828,88.276,264.828z"/>
	<path style="fill:#235087;" d="M423.724,264.828c-2.339,0-4.59-0.927-6.241-2.586l-61.793-61.793
		c-3.39-3.505-3.293-9.092,0.221-12.482c3.425-3.302,8.845-3.302,12.262,0l61.793,61.793c3.443,3.452,3.443,9.039,0,12.482
		C428.306,263.901,426.063,264.828,423.724,264.828z"/>
	<path style="fill:#235087;" d="M335.448,467.862H176.552c-4.873,0-8.828-3.955-8.828-8.828s3.955-8.828,8.828-8.828h158.897
		c4.873,0,8.828,3.955,8.828,8.828S340.321,467.862,335.448,467.862z"/>
</g>
<path style="fill:#3596D8;" d="M194.207,203.034c-2.984,0-5.897-0.265-8.828-0.441v0.441c0,9.754,7.901,17.655,17.655,17.655
	h105.931c9.754,0,17.655-7.901,17.655-17.655v-70.621c-0.009-4.22-1.536-8.289-4.299-11.476
	C299.29,170.946,249.273,202.999,194.207,203.034z"/>
<path style="fill:#EF2648;" d="M0,494.345v-70.621c0-9.754,7.901-17.655,17.655-17.655h35.31l17.655,17.655l17.655-17.655h35.31
	c9.754,0,17.655,7.901,17.655,17.655v70.621c0,9.754-7.901,17.655-17.655,17.655H17.655C7.901,512,0,504.099,0,494.345z"/>
<path style="fill:#B20D24;" d="M8.828,494.345c-2.984,0-5.897-0.265-8.828-0.441v0.441C0,504.099,7.901,512,17.655,512h105.931
	c9.754,0,17.655-7.901,17.655-17.655v-70.621c-0.009-4.22-1.536-8.289-4.299-11.476C113.911,462.257,63.894,494.31,8.828,494.345z"
	/>
<path style="fill:#FFA511;" d="M370.759,494.345v-70.621c0-9.754,7.901-17.655,17.655-17.655h35.31l17.655,17.655l17.655-17.655
	h35.31c9.754,0,17.655,7.901,17.655,17.655v70.621c0,9.754-7.901,17.655-17.655,17.655H388.414
	C378.659,512,370.759,504.099,370.759,494.345z"/>
<path style="fill:#F08015;" d="M379.586,494.345c-2.984,0-5.897-0.265-8.828-0.441v0.441c0,9.754,7.901,17.655,17.655,17.655
	h105.931c9.754,0,17.655-7.901,17.655-17.655v-70.621c-0.009-4.22-1.536-8.289-4.299-11.476
	C484.67,462.257,434.653,494.31,379.586,494.345z"/>
<path style="fill:#EDC4A2;" d="M282.377,8.934c14.671,19.341,10.884,46.91-8.448,61.581c-15.704,11.917-37.429,11.917-53.133,0
	c14.504,19.509,42.072,23.57,61.581,9.075s23.57-42.072,9.075-61.581C288.883,14.557,285.828,11.494,282.377,8.934z"/>
<circle style="fill:#FFD4B0;" cx="441.379" cy="335.448" r="44.138"/>
<path style="fill:#EDC4A2;" d="M467.756,300.244c14.671,19.341,10.884,46.91-8.448,61.581c-15.704,11.917-37.429,11.917-53.133,0
	c14.504,19.509,42.072,23.57,61.581,9.075c19.509-14.495,23.57-42.072,9.075-61.581
	C474.262,305.867,471.208,302.804,467.756,300.244z"/>
<circle style="fill:#FFD4B0;" cx="70.621" cy="335.448" r="44.138"/>
<path style="fill:#EDC4A2;" d="M96.998,300.244c14.671,19.341,10.884,46.91-8.448,61.581c-15.704,11.917-37.429,11.917-53.133,0
	c14.504,19.509,42.072,23.57,61.581,9.075c19.509-14.504,23.57-42.072,9.075-61.581C103.503,305.867,100.449,302.804,96.998,300.244
	z"/>
<g>
</g>
<g>
</g>
<g>
</g>
<g>
</g>
<g>
</g>
<g>
</g>
<g>
</g>
<g>
</g>
<g>
</g>
<g>
</g>
<g>
</g>
<g>
</g>
<g>
</g>
<g>
</g>
<g>
</g>
</svg>
