<?xml version="1.0" encoding="iso-8859-1"?>
<!-- Generator: Adobe Illustrator 19.0.0, SVG Export Plug-In . SVG Version: 6.00 Build 0)  -->
<svg version="1.1" id="Capa_1" xmlns="http://www.w3.org/2000/svg" xmlns:xlink="http://www.w3.org/1999/xlink" x="0px" y="0px"
	 viewBox="0 0 512 512" style="enable-background:new 0 0 512 512;" xml:space="preserve">
<rect x="44.138" y="308.966" style="fill:#235087;" width="432.552" height="17.655"/>
<circle style="fill:#FFD4B0;" cx="256" cy="52.966" r="35.31"/>
<path style="fill:#4DB5FF;" d="M199.38,291.911c-2.119,11.767,5.703,23.022,17.47,25.141c11.449,2.057,22.475-5.297,24.973-16.658
	L256,229.517l14.177,70.877c2.569,11.679,14.115,19.059,25.785,16.49c11.361-2.498,18.714-13.524,16.658-24.973l-21.31-106.531
	H220.69L199.38,291.911z"/>
<path style="fill:#FFD4B0;" d="M370.759,97.103h-44.138v35.31h44.138c9.754,0,17.655-7.901,17.655-17.655
	S380.513,97.103,370.759,97.103z"/>
<polygon style="fill:#EF2648;" points="44.138,512 79.448,459.034 114.759,512 "/>
<g>
	<path style="fill:#FFDC13;" d="M0,512h44.138V22.069C44.138,9.878,34.26,0,22.069,0l0,0C9.878,0,0,9.878,0,22.069V512z"/>
	<path style="fill:#FFDC13;" d="M467.862,512H512V22.069C512,9.878,502.122,0,489.931,0l0,0c-12.191,0-22.069,9.878-22.069,22.069
		V512z"/>
</g>
<path style="fill:#FFD4B0;" d="M141.241,97.103c-9.754,0-17.655,7.901-17.655,17.655s7.901,17.655,17.655,17.655h44.138v-35.31
	H141.241z"/>
<polygon style="fill:#FFA511;" points="273.655,97.103 256,114.759 238.345,97.103 185.379,97.103 185.379,132.414 211.862,132.414 
	220.69,185.379 291.31,185.379 300.138,132.414 326.621,132.414 326.621,97.103 "/>
<path style="fill:#B20D24;" d="M57.379,503.172c-2.401,0-4.776-0.141-7.115-0.362L44.138,512h70.621l-14.76-22.14
	C87.481,498.538,72.607,503.19,57.379,503.172z"/>
<polygon style="fill:#EF2648;" points="114.759,512 150.069,459.034 185.379,512 "/>
<path style="fill:#B20D24;" d="M128,503.172c-2.401,0-4.776-0.141-7.115-0.362l-6.126,9.19h70.621l-14.76-22.14
	C158.102,498.538,143.228,503.19,128,503.172z"/>
<polygon style="fill:#EF2648;" points="185.379,512 220.69,459.034 256,512 "/>
<path style="fill:#B20D24;" d="M198.621,503.172c-2.401,0-4.776-0.141-7.115-0.362l-6.126,9.19H256l-14.76-22.14
	C228.723,498.538,213.848,503.19,198.621,503.172z"/>
<polygon style="fill:#EF2648;" points="256,512 291.31,459.034 326.621,512 "/>
<path style="fill:#B20D24;" d="M269.241,503.172c-2.401,0-4.776-0.141-7.115-0.362L256,512h70.621l-14.76-22.14
	C299.343,498.538,284.469,503.19,269.241,503.172z"/>
<polygon style="fill:#EF2648;" points="326.621,512 361.931,459.034 397.241,512 "/>
<path style="fill:#B20D24;" d="M339.862,503.172c-2.401,0-4.776-0.141-7.115-0.362l-6.126,9.19h70.621l-14.76-22.14
	C369.964,498.538,355.09,503.19,339.862,503.172z"/>
<polygon style="fill:#EF2648;" points="397.241,512 432.552,459.034 467.862,512 "/>
<path style="fill:#B20D24;" d="M410.483,503.172c-2.401,0-4.776-0.141-7.115-0.362l-6.126,9.19h70.621l-14.76-22.14
	C440.585,498.538,425.71,503.19,410.483,503.172z"/>
<path style="fill:#3596D8;" d="M199.38,291.911c-2.119,11.767,5.703,23.022,17.47,25.141c11.449,2.057,22.475-5.297,24.973-16.658
	L256,229.517l14.177,70.877c2.569,11.679,14.115,19.059,25.785,16.49c11.361-2.498,18.714-13.524,16.658-24.973l-21.31-106.531
	h-0.318c-22.607,16.949-48.967,28.195-76.853,32.768L199.38,291.911z"/>
<g>
	<path style="fill:#EDC4A2;" d="M370.759,97.103h-16.931c-3.919,12.314-9.19,24.152-15.713,35.31h32.644
		c9.754,0,17.655-7.901,17.655-17.655S380.513,97.103,370.759,97.103z"/>
	<path style="fill:#EDC4A2;" d="M276.136,24.002c11.149,15.96,7.247,37.941-8.713,49.09c-12.129,8.474-28.257,8.474-40.386,0
		c11.034,16.075,33.015,20.171,49.09,9.137c16.075-11.034,20.171-33.015,9.137-49.09C282.809,29.555,279.711,26.456,276.136,24.002z
		"/>
</g>
<g>
</g>
<g>
</g>
<g>
</g>
<g>
</g>
<g>
</g>
<g>
</g>
<g>
</g>
<g>
</g>
<g>
</g>
<g>
</g>
<g>
</g>
<g>
</g>
<g>
</g>
<g>
</g>
<g>
</g>
</svg>
