<?xml version="1.0" encoding="iso-8859-1"?>
<!-- Generator: Adobe Illustrator 19.0.0, SVG Export Plug-In . SVG Version: 6.00 Build 0)  -->
<svg version="1.1" id="Capa_1" xmlns="http://www.w3.org/2000/svg" xmlns:xlink="http://www.w3.org/1999/xlink" x="0px" y="0px"
	 viewBox="0 0 511.996 511.996" style="enable-background:new 0 0 511.996 511.996;" xml:space="preserve">
<path style="fill:#235087;" d="M277.681,425.199c-0.13-66.964,54.035-121.355,120.999-121.485
	c15.003-0.026,29.877,2.725,43.874,8.122V86.775H26.033v347.101h252.082C277.915,430.995,277.681,428.132,277.681,425.199z"/>
<path style="fill:#163768;" d="M26.033,407.844v26.033h252.082c-0.2-2.881-0.434-5.745-0.434-8.678
	c-0.13-66.964,54.035-121.355,120.999-121.485c15.003-0.026,29.877,2.725,43.874,8.122V95.453
	C388.536,280.553,218.856,407.809,26.033,407.844z"/>
<g>
	<path style="fill:#4DB5FF;" d="M269.003,260.326v69.42h55.163c4.512-3.575,9.276-6.821,14.257-9.719v-59.701H269.003z"/>
	<rect x="338.423" y="190.906" style="fill:#4DB5FF;" width="69.42" height="69.42"/>
</g>
<g>
	<path style="fill:#B7E5FF;" d="M338.423,320.027c18.448-10.708,39.413-16.34,60.743-16.314c2.933,0,5.797,0.234,8.678,0.434
		v-43.822h-69.42V320.027z"/>
	<rect x="130.163" y="329.746" style="fill:#B7E5FF;" width="69.42" height="69.42"/>
</g>
<g>
	<rect x="60.743" y="329.746" style="fill:#4DB5FF;" width="69.42" height="69.42"/>
	<rect x="199.583" y="329.746" style="fill:#4DB5FF;" width="69.42" height="69.42"/>
</g>
<path style="fill:#B7E5FF;" d="M269.003,399.166h11.541c6.066-27.49,21.486-52.03,43.622-69.42h-55.163V399.166z"/>
<circle style="fill:#FFDC13;" cx="399.166" cy="425.199" r="86.775"/>
<rect x="26.033" y="26.033" style="fill:#4DB5FF;" width="416.521" height="60.743"/>
<g>
	<path style="fill:#235087;" d="M60.743,52.065c-4.79,0-8.678-3.888-8.678-8.678V8.678c0-4.79,3.888-8.678,8.678-8.678
		s8.678,3.888,8.678,8.678v34.71C69.42,48.178,65.533,52.065,60.743,52.065z"/>
	<path style="fill:#235087;" d="M95.453,52.065c-4.79,0-8.678-3.888-8.678-8.678V8.678c0-4.79,3.888-8.678,8.678-8.678
		s8.678,3.888,8.678,8.678v34.71C104.13,48.178,100.243,52.065,95.453,52.065z"/>
	<path style="fill:#235087;" d="M130.163,52.065c-4.79,0-8.678-3.888-8.678-8.678V8.678c0-4.79,3.888-8.678,8.678-8.678
		c4.79,0,8.678,3.888,8.678,8.678v34.71C138.84,48.178,134.953,52.065,130.163,52.065z"/>
	<path style="fill:#235087;" d="M338.423,52.065c-4.79,0-8.678-3.888-8.678-8.678V8.678c0-4.79,3.888-8.678,8.678-8.678
		s8.678,3.888,8.678,8.678v34.71C347.101,48.178,343.213,52.065,338.423,52.065z"/>
	<path style="fill:#235087;" d="M373.134,52.065c-4.79,0-8.678-3.888-8.678-8.678V8.678c0-4.79,3.888-8.678,8.678-8.678
		s8.678,3.888,8.678,8.678v34.71C381.811,48.178,377.924,52.065,373.134,52.065z"/>
	<path style="fill:#235087;" d="M407.844,52.065c-4.79,0-8.678-3.888-8.678-8.678V8.678c0-4.79,3.888-8.678,8.678-8.678
		s8.678,3.888,8.678,8.678v34.71C416.521,48.178,412.634,52.065,407.844,52.065z"/>
	<path style="fill:#235087;" d="M164.873,52.065c-4.79,0-8.678-3.888-8.678-8.678V8.678c0-4.79,3.888-8.678,8.678-8.678
		s8.678,3.888,8.678,8.678v34.71C173.551,48.178,169.663,52.065,164.873,52.065z"/>
	<path style="fill:#235087;" d="M303.713,52.065c-4.79,0-8.678-3.888-8.678-8.678V8.678c0-4.79,3.888-8.678,8.678-8.678
		s8.678,3.888,8.678,8.678v34.71C312.391,48.178,308.503,52.065,303.713,52.065z"/>
</g>
<path style="fill:#EF2648;" d="M399.166,433.876c-2.3,0-4.512-0.911-6.135-2.543l-26.033-26.033
	c-3.332-3.445-3.237-8.938,0.208-12.27c3.367-3.245,8.695-3.245,12.062,0l19.898,19.898l37.253-37.253
	c3.445-3.332,8.938-3.237,12.27,0.208c3.245,3.367,3.245,8.695,0,12.062l-43.388,43.388
	C403.678,432.965,401.466,433.876,399.166,433.876z"/>
<rect x="269.003" y="121.485" style="fill:#4DB5FF;" width="69.42" height="69.42"/>
<rect x="199.583" y="121.485" style="fill:#B7E5FF;" width="69.42" height="69.42"/>
<rect x="60.743" y="190.906" style="fill:#4DB5FF;" width="69.42" height="69.42"/>
<rect x="60.743" y="121.485" style="fill:#B7E5FF;" width="69.42" height="69.42"/>
<g>
	<rect x="130.163" y="121.485" style="fill:#4DB5FF;" width="69.42" height="69.42"/>
	<rect x="199.583" y="190.906" style="fill:#4DB5FF;" width="69.42" height="69.42"/>
</g>
<rect x="130.163" y="190.906" style="fill:#B7E5FF;" width="69.42" height="69.42"/>
<rect x="130.163" y="260.326" style="fill:#4DB5FF;" width="69.42" height="69.42"/>
<g>
	<rect x="199.583" y="260.326" style="fill:#B7E5FF;" width="69.42" height="69.42"/>
	<rect x="269.003" y="190.906" style="fill:#B7E5FF;" width="69.42" height="69.42"/>
	<rect x="60.743" y="260.326" style="fill:#B7E5FF;" width="69.42" height="69.42"/>
	<rect x="338.423" y="121.485" style="fill:#B7E5FF;" width="69.42" height="69.42"/>
</g>
<path style="fill:#E5AF17;" d="M451.162,355.848c28.783,38.233,21.121,92.563-17.112,121.347c-30.857,23.23-73.377,23.23-104.234,0
	c28.662,38.355,82.992,46.208,121.347,17.546s46.208-82.992,17.546-121.347C463.727,366.73,457.818,360.829,451.162,355.848z"/>
<g>
	<path style="fill:#3596D8;" d="M274.21,329.746h49.93c4.521-3.575,9.294-6.821,14.283-9.719v-45.123
		C318.847,295.218,297.344,313.588,274.21,329.746z"/>
	<path style="fill:#3596D8;" d="M351.848,260.326h55.996v-69.42h-6.126C387.417,215.628,370.713,238.875,351.848,260.326z"/>
</g>
<g>
	<path style="fill:#96D0EA;" d="M338.423,274.895v45.123c18.448-10.708,39.413-16.331,60.743-16.305
		c2.933,0,5.797,0.234,8.678,0.434v-43.822h-55.996C347.483,265.289,343.014,270.149,338.423,274.895z"/>
	<path style="fill:#96D0EA;" d="M130.163,395.175v3.992h69.42v-27.525C177.152,381.447,153.931,389.317,130.163,395.175z"/>
</g>
<g>
	<path style="fill:#3596D8;" d="M112.704,399.166h17.459v-3.992C124.384,396.606,118.578,397.977,112.704,399.166z"/>
	<path style="fill:#3596D8;" d="M199.583,371.641v27.525h69.42v-65.698C247.075,348.29,223.837,361.063,199.583,371.641z"/>
</g>
<path style="fill:#96D0EA;" d="M269.003,333.469v65.698h11.541c6.066-27.49,21.486-52.03,43.622-69.42H274.21
	C272.474,330.969,270.782,332.271,269.003,333.469z"/>
<g>
</g>
<g>
</g>
<g>
</g>
<g>
</g>
<g>
</g>
<g>
</g>
<g>
</g>
<g>
</g>
<g>
</g>
<g>
</g>
<g>
</g>
<g>
</g>
<g>
</g>
<g>
</g>
<g>
</g>
</svg>
